<svg viewBox="0 0 40 40" fill="none" xmlns="http://www.w3.org/2000/svg">
<g id="fi_1482705" clip-path="url(#clip0_119_4651)">
<path id="Vector" d="M38.7348 16.232H37.9334L38.5249 12.2107C38.5749 11.8695 38.4742 11.5231 38.249 11.2622C38.0235 11.001 37.6954 10.8512 37.3505 10.8512H32.6099C32.2651 10.8512 31.937 11.001 31.7115 11.2622C31.486 11.5231 31.3853 11.8695 31.4356 12.2107L32.027 16.232H27.3801V8.75917C27.3801 6.04004 25.1679 3.82812 22.4488 3.82812H18.4629C15.7437 3.82812 13.5318 6.04004 13.5318 8.75917V16.232H3.84644L5.88044 11.2027C5.94789 11.2146 6.01655 11.2219 6.08735 11.2219H11.1072C11.7627 11.2219 12.294 10.6903 12.294 10.0348V7.52503C12.294 5.48645 10.6357 3.82812 8.59712 3.82812C6.64461 3.82812 5.04182 5.35004 4.91029 7.2699L1.28571 16.232H1.10901C0.453187 16.232 -0.078125 16.7636 -0.078125 17.4192V35.0657C-0.078125 35.7212 0.453187 36.2528 1.10901 36.2528C1.76453 36.2528 2.29584 35.7212 2.29584 35.0657V22.8794H13.5865C13.5507 23.0619 13.5315 23.2502 13.5315 23.443V23.5025C13.5315 25.1224 14.8493 26.4405 16.4691 26.4405H19.2688V31.7801H17.5675C15.3043 31.7801 13.5315 33.2233 13.5315 35.0657C13.5315 35.7212 14.0631 36.2528 14.7187 36.2528C15.3742 36.2528 15.9055 35.7212 15.9055 35.0657C15.9055 34.694 16.5531 34.1541 17.5675 34.1541H23.3442C24.3586 34.1541 25.0058 34.694 25.0058 35.0657C25.0058 35.7212 25.5375 36.2528 26.193 36.2528C26.8485 36.2528 27.3798 35.7212 27.3798 35.0657C27.3798 33.2233 25.607 31.7801 23.3442 31.7801H21.6428V26.4405H24.4422C26.0621 26.4405 27.3798 25.1224 27.3798 23.5025V23.443C27.3798 23.2502 27.3606 23.0619 27.3249 22.8794H37.548V35.0657C37.548 35.7212 38.0793 36.2528 38.7348 36.2528C39.3903 36.2528 39.922 35.7212 39.922 35.0657V17.4192C39.922 16.7636 39.3906 16.232 38.7348 16.232ZM8.59712 6.20209C9.3265 6.20209 9.92006 6.79566 9.92006 7.52503V8.84797H7.27449V7.52503C7.27449 6.79536 7.86775 6.20209 8.59712 6.20209ZM33.9841 13.2251H35.976L35.5338 16.232H34.4263L33.9841 13.2251ZM15.9055 8.75917C15.9055 7.34925 17.0526 6.20209 18.4626 6.20209H22.4488C23.8587 6.20209 25.0058 7.34925 25.0058 8.75917V16.232H15.9055V8.75917ZM2.29584 18.6063H37.548V20.5054H2.29584V18.6063ZM25.0058 23.443V23.5025C25.0058 23.8135 24.7532 24.0665 24.4422 24.0665H16.4691C16.1585 24.0665 15.9055 23.8135 15.9055 23.5025V23.443C15.9055 23.1321 16.1585 22.8794 16.4691 22.8794H24.4422C24.7532 22.8794 25.0058 23.1321 25.0058 23.443Z" fill="#006EB7"/>
</g>
<defs>
<clipPath id="clip0_119_4651">
<rect width="40" height="40" fill="white"/>
</clipPath>
</defs>
</svg>
