<svg viewBox="0 0 40 40" fill="none" xmlns="http://www.w3.org/2000/svg">
<g id="fi_2626863" clip-path="url(#clip0_119_4656)">
<path id="Vector" d="M39.55 15.2874L33.125 9.93744V5.62494C33.125 5.29342 32.9933 4.97548 32.7589 4.74106C32.5245 4.50664 32.2065 4.37494 31.875 4.37494C31.5435 4.37494 31.2255 4.50664 30.9911 4.74106C30.7567 4.97548 30.625 5.29342 30.625 5.62494V7.84994L22.4 0.999942C21.7262 0.438692 20.8769 0.131348 20 0.131348C19.123 0.131348 18.2738 0.438692 17.6 0.999942L0.449993 15.2874C0.194723 15.4996 0.0341924 15.8045 0.00371773 16.135C-0.0267569 16.4656 0.0753202 16.7947 0.287493 17.0499C0.499667 17.3052 0.804556 17.4657 1.13509 17.4962C1.46562 17.5267 1.79472 17.4246 2.04999 17.2124L19.2 2.91869C19.4246 2.73161 19.7077 2.62916 20 2.62916C20.2923 2.62916 20.5754 2.73161 20.8 2.91869L35 14.7499V36.2499C35 36.5815 34.8683 36.8994 34.6339 37.1338C34.3995 37.3682 34.0815 37.4999 33.75 37.4999H27.5V23.7499C27.5 22.7554 27.1049 21.8015 26.4016 21.0983C25.6984 20.395 24.7446 19.9999 23.75 19.9999H16.25C15.2554 19.9999 14.3016 20.395 13.5983 21.0983C12.8951 21.8015 12.5 22.7554 12.5 23.7499V37.4999H6.24999C5.91847 37.4999 5.60053 37.3682 5.36611 37.1338C5.13169 36.8994 4.99999 36.5815 4.99999 36.2499V21.2499C4.99999 20.9184 4.8683 20.6005 4.63388 20.3661C4.39946 20.1316 4.08151 19.9999 3.74999 19.9999C3.41847 19.9999 3.10053 20.1316 2.86611 20.3661C2.63169 20.6005 2.49999 20.9184 2.49999 21.2499V36.2499C2.49999 37.2445 2.89508 38.1983 3.59834 38.9016C4.3016 39.6049 5.25543 39.9999 6.24999 39.9999H33.75C34.7446 39.9999 35.6984 39.6049 36.4016 38.9016C37.1049 38.1983 37.5 37.2445 37.5 36.2499V16.8374L37.95 17.2124C38.1749 17.3988 38.4579 17.5005 38.75 17.4999C39.0074 17.5004 39.2587 17.4215 39.4695 17.2738C39.6803 17.1262 39.8404 16.917 39.928 16.675C40.0155 16.4329 40.0261 16.1698 39.9585 15.9214C39.8909 15.6731 39.7482 15.4517 39.55 15.2874ZM15 37.4999V23.7499C15 23.4184 15.1317 23.1005 15.3661 22.8661C15.6005 22.6316 15.9185 22.4999 16.25 22.4999H23.75C24.0815 22.4999 24.3995 22.6316 24.6339 22.8661C24.8683 23.1005 25 23.4184 25 23.7499V37.4999H15Z" fill="#006EB7"/>
<path id="Vector_2" d="M18.75 31.25C19.4404 31.25 20 30.6904 20 30C20 29.3096 19.4404 28.75 18.75 28.75C18.0596 28.75 17.5 29.3096 17.5 30C17.5 30.6904 18.0596 31.25 18.75 31.25Z" fill="#006EB7"/>
</g>
<defs>
<clipPath id="clip0_119_4656">
<rect width="40" height="40" fill="white"/>
</clipPath>
</defs>
</svg>
