<svg viewBox="0 0 40 40" fill="none" xmlns="http://www.w3.org/2000/svg">
<g id="fi_4361899" clip-path="url(#clip0_119_4662)">
<g id="Group">
<path id="Vector" d="M38.8281 12.664C39.4753 12.664 40 12.1393 40 11.4921C40 10.8449 39.4753 10.3202 38.8281 10.3202H31.6512V8.49227C31.6512 7.91938 31.237 7.43048 30.672 7.33634L26.7627 6.68478C26.3559 5.68431 25.3738 4.97681 24.2289 4.97681C6.67008 4.97681 45.5233 4.97681 4.44063 4.97681C1.99203 4.97673 0 6.96876 0 9.41735V10.9361C0 12.7719 0.735469 14.5119 2.00695 15.7816C2.95656 16.7319 3.43133 18.0433 3.30945 19.3798L2.53211 27.9148C1.07305 28.3257 0 29.6677 0 31.2564V35.2064C0 35.8536 0.524687 36.3783 1.17188 36.3783H14.8258C15.473 36.3783 15.9977 35.8536 15.9977 35.2064V31.2564C15.9977 29.6211 14.8609 28.2472 13.3364 27.881L14.0146 20.4325C14.8503 21.2185 15.8744 21.8027 16.9995 22.1072C17.6272 22.2767 18.2684 21.9042 18.4367 21.282C18.6057 20.6573 18.2363 20.0138 17.6116 19.8448C16.549 19.5573 15.6219 18.8956 14.9951 18.0072H24.2289C25.4007 18.0072 26.3675 17.2792 26.7643 16.2992L30.6719 15.6479C31.237 15.5538 31.6511 15.0649 31.6511 14.492V12.664H38.8281ZM13.6539 34.0345H2.34375V31.2564C2.34375 30.6343 2.84984 30.1283 3.4718 30.1283H12.5258C13.1478 30.1283 13.6538 30.6344 13.6538 31.2564V34.0345H13.6539ZM24.6195 15.2728C24.6195 15.4838 24.4486 15.6634 24.2289 15.6634H14.9023C13.2823 15.6634 11.9835 16.9058 11.8408 18.4587L10.9917 27.7845H4.8975L5.64367 19.5925C5.82883 17.5615 5.10766 15.5686 3.66398 14.1241C2.81867 13.2799 2.34375 12.1309 2.34375 10.9361V9.41735C2.34375 8.2611 3.28437 7.32048 4.44063 7.32048H4.93227V9.34313C4.93227 9.99032 5.45695 10.515 6.10414 10.515C6.75133 10.515 7.27602 9.99032 7.27602 9.34313V7.32048H9.61977V9.34313C9.61977 9.99032 10.1445 10.515 10.7916 10.515C11.4388 10.515 11.9635 9.99032 11.9635 9.34313V7.32048H14.3073V9.34313C14.3073 9.99032 14.832 10.515 15.4791 10.515C16.1263 10.515 16.651 9.99032 16.651 9.34313V7.32048H24.2289C24.4443 7.32048 24.6195 7.49571 24.6195 7.7111V15.2728ZM29.3074 13.4992L26.9637 13.8899V9.09431L29.3074 9.48493V13.4992Z" fill="#006EB7"/>
<path id="Vector_2" d="M37.9995 7.6222C38.4572 8.07985 39.1991 8.07985 39.6568 7.6222C40.1144 7.16462 40.1144 6.42259 39.6568 5.96493L37.6569 3.96501C37.1993 3.50743 36.4573 3.50743 35.9996 3.96501C35.5419 4.42259 35.5419 5.16462 35.9996 5.62228L37.9995 7.6222Z" fill="#006EB7"/>
<path id="Vector_3" d="M37.9995 15.3618L35.9996 17.3617C35.5419 17.8193 35.5419 18.5613 35.9996 19.019C36.4573 19.4766 37.1992 19.4766 37.6569 19.019L39.6568 17.0191C40.1144 16.5615 40.1144 15.8195 39.6568 15.3618C39.1991 14.9041 38.4571 14.9041 37.9995 15.3618Z" fill="#006EB7"/>
</g>
</g>
<defs>
<clipPath id="clip0_119_4662">
<rect width="40" height="40" fill="white"/>
</clipPath>
</defs>
</svg>
