<svg viewBox="0 0 40 40" fill="none" xmlns="http://www.w3.org/2000/svg">
<g id="fi_1013182" clip-path="url(#clip0_119_4670)">
<g id="Group">
<g id="Group_2">
<path id="Vector" d="M34.1408 30.6247H30.6252V1.17236C30.6252 0.525176 30.1005 0.000488281 29.4533 0.000488281C28.8062 0.000488281 28.2815 0.525176 28.2815 1.17236V30.6247H24.7659C21.5351 30.6247 18.9067 33.2531 18.9067 36.4839C18.9067 37.1311 19.4314 37.6558 20.0786 37.6558H21.2505V38.8277C21.2505 39.4749 21.7751 39.9995 22.4223 39.9995C23.0695 39.9995 23.5942 39.4749 23.5942 38.8277V37.6558H25.9379V38.8277C25.9379 39.4749 26.4626 39.9995 27.1098 39.9995C27.7569 39.9995 28.2816 39.4749 28.2816 38.8277V37.6558H30.6253V38.8277C30.6253 39.4749 31.15 39.9995 31.7972 39.9995C32.4444 39.9995 32.9691 39.4749 32.9691 38.8277V37.6558H35.3127V38.8277C35.3127 39.4749 35.8374 39.9995 36.4846 39.9995C37.1318 39.9995 37.6565 39.4749 37.6565 38.8277V37.6558H38.8283C39.4755 37.6558 40.0002 37.1311 40.0002 36.4839C40 33.2531 37.3716 30.6247 34.1408 30.6247ZM21.4513 35.3121C21.935 33.948 23.2382 32.9685 24.766 32.9685H34.1408C35.6686 32.9685 36.9719 33.9481 37.4555 35.3121H21.4513Z" fill="#006EB7"/>
</g>
</g>
<g id="Group_3">
<g id="Group_4">
<path id="Vector_2" d="M12.8913 27.1091C12.2441 27.1091 11.7194 27.6338 11.7194 28.281C11.7194 29.5733 10.668 30.6247 9.37578 30.6247C8.08351 30.6247 7.0321 29.5733 7.0321 28.281C7.0321 27.6338 6.50742 27.1091 5.86023 27.1091C5.21304 27.1091 4.68835 27.6338 4.68835 28.281C4.68835 30.8656 6.79109 32.9683 9.3757 32.9683C11.9603 32.9683 14.063 30.8656 14.063 28.281C14.0632 27.6338 13.5385 27.1091 12.8913 27.1091Z" fill="#006EB7"/>
</g>
</g>
<g id="Group_5">
<g id="Group_6">
<path id="Vector_3" d="M11.7194 16.5626V1.17236C11.7194 0.525176 11.1948 0.000488281 10.5476 0.000488281C9.90038 0.000488281 9.37569 0.525176 9.37569 1.17236V16.9675C8.1596 17.3993 7.07343 18.1604 6.25186 19.1735C5.75358 18.9973 5.22616 18.9063 4.68835 18.9063C1.7978 18.9063 -0.419544 21.5129 0.0671747 24.382C-0.0740753 24.7893 -0.163606 23.8753 2.36053 39.0203C2.45475 39.5854 2.94358 39.9995 3.51647 39.9995H15.2349C15.8078 39.9995 16.2966 39.5854 16.3908 39.0203C18.9203 23.8434 18.8132 24.8044 18.6993 24.4272C19.1994 20.1997 15.8842 16.5626 11.7194 16.5626ZM14.2423 37.6558H4.50928L2.55616 25.9374H16.1954L14.2423 37.6558ZM2.34475 23.5936C2.34475 22.3013 3.39616 21.2499 4.68843 21.2499C5.15452 21.2499 5.60428 21.3861 5.98921 21.6436C6.25874 21.824 6.59085 21.8845 6.90678 21.811C7.22257 21.7374 7.49382 21.5362 7.65593 21.2553C8.49179 19.8064 10.0489 18.9063 11.7194 18.9063C14.3041 18.9063 16.4068 21.009 16.4068 23.5936H2.34475Z" fill="#006EB7"/>
</g>
</g>
<g id="Group_7">
<g id="Group_8">
<path id="Vector_4" d="M5.91782 7.18799C6.56502 7.18799 7.08969 6.66332 7.08969 6.01611C7.08969 5.3689 6.56502 4.84424 5.91782 4.84424C5.27061 4.84424 4.74594 5.3689 4.74594 6.01611C4.74594 6.66332 5.27061 7.18799 5.91782 7.18799Z" fill="#006EB7"/>
</g>
</g>
<g id="Group_9">
<g id="Group_10">
<path id="Vector_5" d="M3.51655 9.53149C1.57812 9.53149 0.00100708 11.1085 0.00100708 13.047C0.00100708 14.9856 1.57804 16.5626 3.51655 16.5626C5.45507 16.5626 7.0321 14.9855 7.0321 13.047C7.0321 11.1086 5.45499 9.53149 3.51655 9.53149ZM3.51655 14.2188C2.87038 14.2188 2.34468 13.6931 2.34468 13.047C2.34468 12.4008 2.87038 11.8751 3.51655 11.8751C4.16273 11.8751 4.68843 12.4008 4.68843 13.047C4.68843 13.6932 4.16273 14.2188 3.51655 14.2188Z" fill="#006EB7"/>
</g>
</g>
</g>
<defs>
<clipPath id="clip0_119_4670">
<rect width="40" height="40" fill="white"/>
</clipPath>
</defs>
</svg>
