<svg viewBox="0 0 24 25" fill="none" xmlns="http://www.w3.org/2000/svg">
<g id="fi_9501756">
<g id="Layer_4">
<g id="Group">
<path id="Vector" d="M11.7903 11.3366C11.9238 11.4701 12.0988 11.5369 12.2738 11.5369C12.4488 11.5369 12.6238 11.4701 12.7573 11.3366C13.0243 11.0696 13.0243 10.6369 12.7573 10.3699L8.65479 6.26739C8.38779 6.00039 7.95504 6.00039 7.68804 6.26739C7.42104 6.53439 7.42104 6.96714 7.68804 7.23414L11.7903 11.3366Z" fill="#006EB7"/>
<path id="Vector_2" d="M14.6248 9.64085C14.7583 9.77435 14.9333 9.8411 15.1088 9.8411C15.2838 9.8411 15.4581 9.77435 15.5916 9.64085C15.8586 9.37385 15.8593 8.9411 15.5923 8.6741L14.6983 7.77935C14.4318 7.51235 13.9986 7.51235 13.7316 7.77935C13.4646 8.04635 13.4646 8.4791 13.7308 8.7461L14.6248 9.64085Z" fill="#006EB7"/>
<path id="Vector_3" d="M11.986 7.03152C12.1155 7.14627 12.2765 7.20252 12.4375 7.20252C12.6273 7.20252 12.816 7.12377 12.951 6.97027C13.2008 6.68727 13.1728 6.25452 12.8895 6.00602L12.3205 5.50527C12.0368 5.25427 11.6048 5.28352 11.355 5.56677C11.106 5.84977 11.1333 6.28252 11.4165 6.53102L11.986 7.03152Z" fill="#006EB7"/>
<path id="Vector_4" d="M10.2091 14.4551C10.3841 14.4551 10.5591 14.3883 10.6926 14.2548C10.9596 13.9878 10.9596 13.5551 10.6926 13.2881L9.58213 12.1771C9.31513 11.9101 8.88238 11.9101 8.61538 12.1771C8.34838 12.4441 8.34838 12.8768 8.61463 13.1438L9.72563 14.2548C9.85913 14.3883 10.0341 14.4551 10.2091 14.4551Z" fill="#006EB7"/>
<path id="Vector_5" d="M8.21393 10.8093L7.95743 10.5528C7.69043 10.2858 7.25768 10.2858 6.99068 10.5528C6.72368 10.8198 6.72368 11.2525 6.99143 11.5195L7.24793 11.776C7.38143 11.9095 7.55643 11.9763 7.73143 11.9763C7.90643 11.9763 8.08143 11.9095 8.21493 11.776C8.48168 11.509 8.48093 11.0765 8.21393 10.8093Z" fill="#006EB7"/>
<path id="Vector_6" d="M22.7155 2.2985C22.7155 1.9205 22.409 1.61475 22.0317 1.61475H4.41875C4.04075 1.61475 3.735 1.9205 3.735 2.2985C3.735 2.2985 3.74225 13.2692 3.735 13.2892L3.17275 14.7275L1.73375 15.259C1.28775 15.4245 1 15.8385 1 16.314C1 16.7907 1.28775 17.2047 1.7345 17.3702L3.172 17.9017C3.172 17.9017 3.72625 19.376 3.735 19.3952V22.8107C3.735 23.1887 4.04075 23.4945 4.41875 23.4945H20.8285C20.8285 23.4945 21.159 23.4665 21.336 23.4665C21.7807 23.4665 22.1987 23.293 22.5117 22.979C22.8265 22.6652 23 22.2472 23 21.8027C23 21.4835 22.8825 21.1927 22.7155 20.929V2.2985ZM2.82225 16.3152L3.7485 15.972C4.05775 15.8597 4.30075 15.6167 4.41625 15.307L4.76075 14.3775L5.10475 15.3082C5.22025 15.6167 5.46325 15.8597 5.76975 15.9707L6.6985 16.3152L5.76625 16.6597C5.4585 16.7745 5.21675 17.0177 5.10375 17.3235L4.7605 18.253L4.4165 17.3247C4.30375 17.0175 4.062 16.7745 3.75075 16.6582L2.82225 16.3152ZM5.1025 20.024C5.42775 19.922 5.692 19.6762 5.8155 19.3415L6.34825 17.902L7.7865 17.3705C8.2325 17.205 8.521 16.791 8.521 16.3142C8.521 15.8387 8.2325 15.4247 7.78525 15.2592L6.34775 14.7277L5.8155 13.2895C5.692 12.9547 5.4275 12.7087 5.1025 12.6067V2.98225H21.348V19.4612L18.9962 17.1102L18.886 14.7795L20.8737 12.791C21.002 12.6627 21.074 12.4892 21.074 12.3075C21.074 12.1257 21.002 11.9522 20.8737 11.824L18.3852 9.336C18.257 9.20775 18.0827 9.13575 17.9017 9.13575C17.901 9.13575 17.901 9.13575 17.901 9.13575C17.7195 9.13575 17.5457 9.20775 17.4175 9.336L8.8845 17.8832C8.61875 18.1502 8.61875 18.5817 8.88375 18.8487L11.359 21.3367C11.4872 21.4662 11.6615 21.5385 11.843 21.5385H11.8437C12.0252 21.5385 12.199 21.4665 12.3272 21.3382L14.3157 19.351L16.64 19.4597L19.3075 22.1272H5.1025V20.024ZM17.6287 17.1285L16.6725 18.0927L14.0777 17.9712C13.8847 17.9392 13.6977 18.034 13.5622 18.1702L11.845 19.8862L10.334 18.3677L17.9025 10.7865L19.4235 12.3075L17.7047 14.0262C17.5692 14.1625 17.4965 14.3495 17.5057 14.5417L17.6287 17.1285ZM21.5457 22.0122C21.3947 22.1657 21.278 22.1657 21.1265 22.0122L17.9052 18.7912L18.3225 18.37L21.5455 21.593C21.621 21.669 21.6322 21.7572 21.6322 21.8027C21.6325 21.8495 21.6212 21.9362 21.5457 22.0122Z" fill="#006EB7"/>
</g>
</g>
</g>
</svg>
