<svg viewBox="0 0 24 25" fill="none" xmlns="http://www.w3.org/2000/svg">
<g id="fi_914400">
<g id="Group">
<g id="Group_2">
<path id="Vector" d="M22.5932 9.79762V8.04886C22.5932 6.52682 21.355 5.28857 19.833 5.28857H14.0572C13.2405 5.28857 12.5058 5.64539 12 6.21093C11.4942 5.64539 10.7595 5.28857 9.94284 5.28857H4.167C2.64497 5.28857 1.40672 6.52682 1.40672 8.04886V9.79762C0.588094 10.0879 0 10.8697 0 11.7866V18.6483H1.40677V19.8209H2.81302V18.6483H21.187V19.8209H22.5933V18.6483H24V11.7866C24 10.8697 23.4119 10.0879 22.5932 9.79762ZM12.7031 10.4426V8.04886C12.7031 7.30223 13.3105 6.69482 14.0572 6.69482H19.833C20.5796 6.69482 21.187 7.30223 21.187 8.04886V9.79762C20.3684 10.0879 19.7803 10.8697 19.7803 11.7866V13.4908H12.7031V10.4426ZM2.81302 8.04886C2.81302 7.30223 3.42042 6.69482 4.167 6.69482H9.9428C10.6894 6.69482 11.2968 7.30223 11.2968 8.04886V10.4426V13.4908H4.21973V11.7866C4.21973 10.8697 3.63164 10.0879 2.81302 9.79762V8.04886ZM22.5938 17.2421H1.40625V11.7866C1.40625 11.3986 1.72191 11.0829 2.10989 11.0829C2.49788 11.0829 2.81348 11.3986 2.81348 11.7866V14.897H21.1865V11.7866C21.1865 11.3986 21.5021 11.0829 21.8901 11.0829C22.2781 11.0829 22.5938 11.3986 22.5938 11.7866V17.2421Z" fill="#006EB7"/>
</g>
</g>
</g>
</svg>
