<svg viewBox="0 0 24 25" fill="none" xmlns="http://www.w3.org/2000/svg">
<g id="fi_4602532" clip-path="url(#clip0_119_2088)">
<g id="Group">
<path id="Vector" d="M21.1875 18.8828C21.1875 20.0459 20.2412 20.9922 19.0781 20.9922H18.2812V14.6641H19.6875V10.4453H18.2812V2.66406C18.2812 1.50095 17.335 0.554688 16.1719 0.554688H2.10938C0.946266 0.554688 0 1.50095 0 2.66406V22.4453C0 23.6084 0.946266 24.5547 2.10938 24.5547H16.1719C17.335 24.5547 18.2812 23.6084 18.2812 22.4453V22.3984H19.0781C21.0166 22.3984 22.5938 20.8213 22.5938 18.8828C22.5938 18.1074 23.2246 17.4766 24 17.4766V16.0703C22.4492 16.0703 21.1875 17.332 21.1875 18.8828ZM16.875 20.8713C16.0566 20.581 15.4688 19.7995 15.4688 18.8828V14.6641H16.875V20.8713ZM18.2812 13.2578H11.25V11.8516H18.2812V13.2578ZM16.1719 23.1484H2.10938C1.72167 23.1484 1.40625 22.833 1.40625 22.4453V2.66406C1.40625 2.27636 1.72167 1.96094 2.10938 1.96094H16.1719C16.5596 1.96094 16.875 2.27636 16.875 2.66406V10.4453H9.84375V14.6641H14.0625V18.8828C14.0625 20.5806 15.2722 22.001 16.875 22.3277V22.4453C16.875 22.833 16.5596 23.1484 16.1719 23.1484Z" fill="#006EB7"/>
<path id="Vector_2" d="M2.51904 20.9902L3.51326 19.996L4.50748 20.9902L3.51326 21.9845L2.51904 20.9902Z" fill="#006EB7"/>
<path id="Vector_3" d="M8.14331 20.9907L9.13753 19.9965L10.1317 20.9907L9.13753 21.9849L8.14331 20.9907Z" fill="#006EB7"/>
<path id="Vector_4" d="M5.33154 18.1782L6.32576 17.184L7.31998 18.1782L6.32576 19.1724L5.33154 18.1782Z" fill="#006EB7"/>
<path id="Vector_5" d="M10.9558 18.179L11.95 17.1847L12.9442 18.179L11.95 19.1732L10.9558 18.179Z" fill="#006EB7"/>
<path id="Vector_6" d="M5.33203 12.554L6.32625 11.5597L7.32047 12.554L6.32625 13.5482L5.33203 12.554Z" fill="#006EB7"/>
<path id="Vector_7" d="M2.51953 15.3657L3.51375 14.3715L4.50797 15.3657L3.51375 16.3599L2.51953 15.3657Z" fill="#006EB7"/>
<path id="Vector_8" d="M2.52002 9.74146L3.51424 8.74724L4.50846 9.74146L3.51424 10.7357L2.52002 9.74146Z" fill="#006EB7"/>
<path id="Vector_9" d="M5.33252 6.92969L6.32674 5.93547L7.32096 6.92969L6.32674 7.92391L5.33252 6.92969Z" fill="#006EB7"/>
<path id="Vector_10" d="M10.9568 6.93018L11.951 5.93596L12.9452 6.93018L11.951 7.92439L10.9568 6.93018Z" fill="#006EB7"/>
<path id="Vector_11" d="M8.14502 4.11768L9.13924 3.12346L10.1335 4.11768L9.13924 5.11189L8.14502 4.11768Z" fill="#006EB7"/>
<path id="Vector_12" d="M2.52075 4.11719L3.51497 3.12297L4.50919 4.11719L3.51497 5.11141L2.52075 4.11719Z" fill="#006EB7"/>
<path id="Vector_13" d="M13.7693 4.11816L14.7635 3.12395L15.7577 4.11816L14.7635 5.11238L13.7693 4.11816Z" fill="#006EB7"/>
</g>
</g>
<defs>
<clipPath id="clip0_119_2088">
<rect width="24" height="24" fill="white" transform="translate(0 0.554688)"/>
</clipPath>
</defs>
</svg>
