<svg viewBox="0 0 40 40" fill="none" xmlns="http://www.w3.org/2000/svg">
<g id="fi_9537870">
<g id="Layer 8">
<path id="Vector" d="M22.5 31.25H27.5C27.8315 31.25 28.1495 31.1183 28.3839 30.8839C28.6183 30.6495 28.75 30.3315 28.75 30V25C28.75 24.6685 28.6183 24.3505 28.3839 24.1161C28.1495 23.8817 27.8315 23.75 27.5 23.75H22.5C22.1685 23.75 21.8505 23.8817 21.6161 24.1161C21.3817 24.3505 21.25 24.6685 21.25 25V30C21.25 30.3315 21.3817 30.6495 21.6161 30.8839C21.8505 31.1183 22.1685 31.25 22.5 31.25ZM23.75 26.25H26.25V28.75H23.75V26.25Z" fill="#006EB7"/>
<path id="Vector_2" d="M22.5 16.25H27.5C27.8315 16.25 28.1495 16.1183 28.3839 15.8839C28.6183 15.6495 28.75 15.3315 28.75 15V10C28.75 9.66848 28.6183 9.35054 28.3839 9.11612C28.1495 8.8817 27.8315 8.75 27.5 8.75H22.5C22.1685 8.75 21.8505 8.8817 21.6161 9.11612C21.3817 9.35054 21.25 9.66848 21.25 10V15C21.25 15.3315 21.3817 15.6495 21.6161 15.8839C21.8505 16.1183 22.1685 16.25 22.5 16.25ZM23.75 11.25H26.25V13.75H23.75V11.25Z" fill="#006EB7"/>
<path id="Vector_3" d="M12.5 16.25H17.5C17.8315 16.25 18.1495 16.1183 18.3839 15.8839C18.6183 15.6495 18.75 15.3315 18.75 15V10C18.75 9.66848 18.6183 9.35054 18.3839 9.11612C18.1495 8.8817 17.8315 8.75 17.5 8.75H12.5C12.1685 8.75 11.8505 8.8817 11.6161 9.11612C11.3817 9.35054 11.25 9.66848 11.25 10V15C11.25 15.3315 11.3817 15.6495 11.6161 15.8839C11.8505 16.1183 12.1685 16.25 12.5 16.25ZM13.75 11.25H16.25V13.75H13.75V11.25Z" fill="#006EB7"/>
<path id="Vector_4" d="M33.75 18.75V6.25C34.0815 6.25 34.3995 6.1183 34.6339 5.88388C34.8683 5.64946 35 5.33152 35 5C35 4.66848 34.8683 4.35054 34.6339 4.11612C34.3995 3.8817 34.0815 3.75 33.75 3.75H6.25C5.91848 3.75 5.60054 3.8817 5.36612 4.11612C5.1317 4.35054 5 4.66848 5 5C5 5.33152 5.1317 5.64946 5.36612 5.88388C5.60054 6.1183 5.91848 6.25 6.25 6.25V18.75C5.91848 18.75 5.60054 18.8817 5.36612 19.1161C5.1317 19.3505 5 19.6685 5 20C5 20.3315 5.1317 20.6495 5.36612 20.8839C5.60054 21.1183 5.91848 21.25 6.25 21.25V35C6.25 35.3315 6.3817 35.6495 6.61612 35.8839C6.85054 36.1183 7.16848 36.25 7.5 36.25H32.5C32.8315 36.25 33.1495 36.1183 33.3839 35.8839C33.6183 35.6495 33.75 35.3315 33.75 35V21.25C34.0815 21.25 34.3995 21.1183 34.6339 20.8839C34.8683 20.6495 35 20.3315 35 20C35 19.6685 34.8683 19.3505 34.6339 19.1161C34.3995 18.8817 34.0815 18.75 33.75 18.75ZM31.25 6.25V18.75H8.75V6.25H31.25ZM13.75 33.75V26.25H16.25V33.75H13.75ZM31.25 33.75H18.75V25C18.75 24.6685 18.6183 24.3505 18.3839 24.1161C18.1495 23.8817 17.8315 23.75 17.5 23.75H12.5C12.1685 23.75 11.8505 23.8817 11.6161 24.1161C11.3817 24.3505 11.25 24.6685 11.25 25V33.75H8.75V21.25H31.25V33.75Z" fill="#006EB7"/>
</g>
</g>
</svg>
