<svg viewBox="0 0 24 24" fill="none" xmlns="http://www.w3.org/2000/svg">
<g id="fi_3815892" clip-path="url(#clip0_142_5490)">
<g id="Group">
<path id="Vector" d="M15.2812 0H5.4375C3.24052 0 1.45312 1.78739 1.45312 3.98438V5.85938C1.45312 6.24769 1.76794 6.5625 2.15625 6.5625H3.32812V8.48025C2.46441 9.39412 1.78289 10.4462 1.30008 11.6118C0.779531 12.8685 0.515625 14.1953 0.515625 15.5556V21.4219C0.515625 22.8435 1.67217 24 3.09375 24H11.5312C12.9528 24 14.1094 22.8435 14.1094 21.4219V17.9795C14.1094 16.0819 13.3703 14.2979 12.0284 12.9562C10.9516 11.8798 10.3589 10.4484 10.3593 8.92584L10.3594 6.5625H11.1175L13.2603 10.4196C13.3888 10.6509 13.6285 10.7814 13.8756 10.7814C13.9911 10.7814 14.1083 10.7529 14.2164 10.6927C14.5559 10.5042 14.6782 10.0761 14.4896 9.73669L12.3431 5.87292L13.3356 4.21875H15.2812C15.6696 4.21875 15.9844 3.90394 15.9844 3.51562V0.703125C15.9844 0.314812 15.6696 0 15.2812 0ZM4.32961 9.46875H8.97342C9.03956 10.3524 9.26742 11.2036 9.64252 11.9881C9.22762 12.0859 8.89645 12.2112 8.58923 12.3278C7.99228 12.5543 7.47675 12.75 6.375 12.75C5.27316 12.75 4.75711 12.5545 4.15959 12.3281C3.75642 12.1753 3.31613 12.0085 2.69906 11.9078C3.09834 11.0197 3.64617 10.1965 4.32961 9.46875ZM12.7031 17.9795V21.4219C12.7031 22.068 12.1774 22.5938 11.5312 22.5938H3.09375C2.44758 22.5938 1.92188 22.068 1.92188 21.4219V15.5556C1.92188 14.77 2.02359 14.0002 2.21962 13.2606C2.83097 13.3287 3.22247 13.4768 3.66131 13.6432C4.29614 13.8836 5.01562 14.1562 6.375 14.1562C7.73461 14.1562 8.45372 13.8833 9.08817 13.6425C9.50564 13.4841 9.87666 13.3437 10.435 13.2714C10.6188 13.5083 10.8186 13.7353 11.0341 13.9507C12.1104 15.0268 12.7031 16.4576 12.7031 17.9795ZM8.95308 8.0625H4.73438V6.5625H8.95312L8.95308 8.0625ZM14.5781 2.8125H12.9375C12.6905 2.8125 12.4617 2.94211 12.3346 3.15384L11.1331 5.15625H2.85938V3.98438C2.85938 2.5628 4.01592 1.40625 5.4375 1.40625H14.5781V2.8125Z" fill="#006EB7"/>
<path id="Vector_2" d="M19.5 1.40625H18.0938C17.7054 1.40625 17.3906 1.72106 17.3906 2.10938C17.3906 2.49769 17.7054 2.8125 18.0938 2.8125H19.5C19.8883 2.8125 20.2031 2.49769 20.2031 2.10938C20.2031 1.72106 19.8883 1.40625 19.5 1.40625Z" fill="#006EB7"/>
<path id="Vector_3" d="M21.375 1.40625H22.7812C23.1696 1.40625 23.4844 1.09144 23.4844 0.703125C23.4844 0.314812 23.1696 0 22.7812 0H21.375C20.9867 0 20.6719 0.314812 20.6719 0.703125C20.6719 1.09144 20.9867 1.40625 21.375 1.40625Z" fill="#006EB7"/>
<path id="Vector_4" d="M22.7812 2.8125H21.375C20.9867 2.8125 20.6719 3.12731 20.6719 3.51562C20.6719 3.90394 20.9867 4.21875 21.375 4.21875H22.7812C23.1696 4.21875 23.4844 3.90394 23.4844 3.51562C23.4844 3.12731 23.1696 2.8125 22.7812 2.8125Z" fill="#006EB7"/>
</g>
</g>
<defs>
<clipPath id="clip0_142_5490">
<rect width="24" height="24" fill="white"/>
</clipPath>
</defs>
</svg>
