<svg viewBox="0 0 24 24" fill="none" xmlns="http://www.w3.org/2000/svg">
<g id="fi_2760060" clip-path="url(#clip0_142_4538)">
<g id="Group">
<path id="Vector" d="M20.4844 21.1875C20.8727 21.1875 21.1875 20.8727 21.1875 20.4844C21.1875 20.096 20.8727 19.7812 20.4844 19.7812C20.096 19.7812 19.7812 20.096 19.7812 20.4844C19.7812 20.8727 20.096 21.1875 20.4844 21.1875Z" fill="#006EB7"/>
<path id="Vector_2" d="M0.703125 24H9.14062C9.52894 24 9.84375 23.6852 9.84375 23.2969C9.84375 21.3584 8.26664 19.7812 6.32812 19.7812H5.625V2.46094C5.625 1.87941 6.09816 1.40625 6.67969 1.40625C7.26122 1.40625 7.73438 1.87941 7.73438 2.46094V14.5078C7.73438 15.8647 8.83838 16.9688 10.1953 16.9688H11.3438V21.8906C11.3438 23.0537 12.29 24 13.4531 24H20.4844C22.4229 24 24 22.4229 24 20.4844C24 18.7866 22.7903 17.3662 21.1875 17.0395V9.37716C21.1875 8.05781 19.9952 7.04738 18.7306 7.29323C14.682 8.08031 11.6839 11.4992 11.3713 15.5625H10.1953C9.61378 15.5625 9.14062 15.0893 9.14062 14.5078V2.46094C9.14062 1.104 8.03662 0 6.67969 0C5.32275 0 4.21875 1.104 4.21875 2.46094V19.7812H3.51562C1.57711 19.7812 0 21.3584 0 23.2969C0 23.6852 0.314812 24 0.703125 24ZM22.5938 20.4844C22.5938 21.6475 21.6475 22.5938 20.4844 22.5938C19.3213 22.5938 18.375 21.6475 18.375 20.4844C18.375 19.3213 19.3213 18.375 20.4844 18.375C21.6475 18.375 22.5938 19.3213 22.5938 20.4844ZM18.999 8.67366C19.407 8.59444 19.7812 8.95566 19.7812 9.37716V17.0395C18.1785 17.3661 16.9688 18.7866 16.9688 20.4844C16.9688 21.2752 17.2314 22.0058 17.6738 22.5938H13.4531C13.0654 22.5938 12.75 22.2783 12.75 21.8906V20.8955C16.0679 19.9539 18.375 16.9198 18.375 13.4531V8.82244C18.5794 8.76473 18.7874 8.71477 18.999 8.67366ZM12.75 16.2656C12.75 13.3057 14.4366 10.6682 16.9688 9.37402V13.4531C16.9688 16.1554 15.2391 18.5407 12.75 19.421V16.2656ZM3.51562 21.1875H6.32812C7.24486 21.1875 8.02683 21.7753 8.31703 22.5938H1.52672C1.81692 21.7753 2.59889 21.1875 3.51562 21.1875Z" fill="#006EB7"/>
</g>
</g>
<defs>
<clipPath id="clip0_142_4538">
<rect width="24" height="24" fill="white"/>
</clipPath>
</defs>
</svg>
