<svg viewBox="0 0 24 24" fill="none" xmlns="http://www.w3.org/2000/svg">
<g id="fi_9501756">
<g id="Layer_4">
<g id="Group">
<path id="Vector" d="M11.7902 10.7832C11.9237 10.9167 12.0987 10.9834 12.2737 10.9834C12.4487 10.9834 12.6237 10.9167 12.7572 10.7832C13.0242 10.5162 13.0242 10.0834 12.7572 9.81642L8.65473 5.71392C8.38773 5.44692 7.95498 5.44692 7.68798 5.71392C7.42098 5.98092 7.42098 6.41367 7.68798 6.68067L11.7902 10.7832Z" fill="#006EB7"/>
<path id="Vector_2" d="M14.6248 9.08714C14.7583 9.22064 14.9333 9.28739 15.1088 9.28739C15.2838 9.28739 15.458 9.22064 15.5915 9.08714C15.8585 8.82014 15.8593 8.38739 15.5923 8.12039L14.6983 7.22564C14.4318 6.95864 13.9985 6.95864 13.7315 7.22564C13.4645 7.49264 13.4645 7.92539 13.7308 8.19239L14.6248 9.08714Z" fill="#006EB7"/>
<path id="Vector_3" d="M11.986 6.47658C12.1155 6.59133 12.2765 6.64758 12.4375 6.64758C12.6272 6.64758 12.816 6.56883 12.951 6.41533C13.2007 6.13233 13.1727 5.69958 12.8895 5.45108L12.3205 4.95033C12.0367 4.69933 11.6047 4.72858 11.355 5.01183C11.106 5.29483 11.1332 5.72758 11.4165 5.97608L11.986 6.47658Z" fill="#006EB7"/>
<path id="Vector_4" d="M10.2093 13.9001C10.3843 13.9001 10.5593 13.8334 10.6928 13.6999C10.9598 13.4329 10.9598 13.0001 10.6928 12.7331L9.58225 11.6221C9.31525 11.3551 8.88251 11.3551 8.61551 11.6221C8.34851 11.8891 8.3485 12.3219 8.61475 12.5889L9.72575 13.6999C9.85925 13.8334 10.0343 13.9001 10.2093 13.9001Z" fill="#006EB7"/>
<path id="Vector_5" d="M8.21399 10.2556L7.95749 9.99908C7.69049 9.73208 7.25774 9.73208 6.99074 9.99908C6.72374 10.2661 6.72374 10.6988 6.99149 10.9658L7.24799 11.2223C7.38149 11.3558 7.5565 11.4226 7.7315 11.4226C7.90649 11.4226 8.0815 11.3558 8.215 11.2223C8.48175 10.9553 8.48099 10.5228 8.21399 10.2556Z" fill="#006EB7"/>
<path id="Vector_6" d="M22.7155 1.7443C22.7155 1.3663 22.409 1.06055 22.0317 1.06055H4.41875C4.04075 1.06055 3.735 1.3663 3.735 1.7443C3.735 1.7443 3.74225 12.715 3.735 12.735L3.17275 14.1733L1.73375 14.7048C1.28775 14.8703 1 15.2843 1 15.7598C1 16.2365 1.28775 16.6505 1.7345 16.816L3.172 17.3475C3.172 17.3475 3.72625 18.8218 3.735 18.841V22.2565C3.735 22.6345 4.04075 22.9403 4.41875 22.9403H20.8285C20.8285 22.9403 21.159 22.9123 21.336 22.9123C21.7808 22.9123 22.1987 22.7388 22.5117 22.4248C22.8265 22.111 23 21.693 23 21.2485C23 20.9293 22.8825 20.6385 22.7155 20.3748V1.7443ZM2.82225 15.761L3.7485 15.4178C4.05775 15.3055 4.30075 15.0625 4.41625 14.7528L4.76075 13.8233L5.10475 14.754C5.22025 15.0625 5.46325 15.3055 5.76975 15.4165L6.6985 15.761L5.76625 16.1055C5.4585 16.2203 5.21675 16.4635 5.10375 16.7693L4.7605 17.6988L4.4165 16.7705C4.30375 16.4633 4.062 16.2203 3.75075 16.104L2.82225 15.761ZM5.1025 19.4698C5.42775 19.3678 5.692 19.122 5.8155 18.7873L6.34825 17.3478L7.7865 16.8163C8.2325 16.6508 8.521 16.2368 8.521 15.76C8.521 15.2845 8.2325 14.8705 7.78525 14.705L6.34775 14.1735L5.8155 12.7353C5.692 12.4005 5.4275 12.1545 5.1025 12.0525V2.42805H21.348V18.907L18.9963 16.556L18.886 14.2253L20.8738 12.2368C21.002 12.1085 21.074 11.935 21.074 11.7533C21.074 11.5715 21.002 11.398 20.8738 11.2698L18.3853 8.7818C18.257 8.65355 18.0828 8.58155 17.9018 8.58155C17.901 8.58155 17.901 8.58155 17.901 8.58155C17.7195 8.58155 17.5457 8.65355 17.4175 8.7818L8.8845 17.329C8.61875 17.596 8.61875 18.0275 8.88375 18.2945L11.359 20.7825C11.4873 20.912 11.6615 20.9843 11.843 20.9843H11.8438C12.0253 20.9843 12.199 20.9123 12.3272 20.784L14.3158 18.7968L16.64 18.9055L19.3075 21.573H5.1025V19.4698ZM17.6287 16.5743L16.6725 17.5385L14.0778 17.417C13.8848 17.385 13.6978 17.4798 13.5623 17.616L11.845 19.332L10.334 17.8135L17.9025 10.2323L19.4235 11.7533L17.7048 13.472C17.5693 13.6083 17.4965 13.7953 17.5058 13.9875L17.6287 16.5743ZM21.5457 21.458C21.3948 21.6115 21.278 21.6115 21.1265 21.458L17.9053 18.237L18.3225 17.8158L21.5455 21.0388C21.621 21.1148 21.6322 21.203 21.6322 21.2485C21.6325 21.2953 21.6213 21.382 21.5457 21.458Z" fill="#006EB7"/>
</g>
</g>
</g>
</svg>
