<svg viewBox="0 0 24 24" fill="none" xmlns="http://www.w3.org/2000/svg">
<g id="fi_2832162">
<g id="Kitchen">
<g id="Group">
<path id="Vector" d="M21.75 12.0008H21V9.67578C21 8.47578 20.025 7.42578 18.75 7.42578C17.55 7.42578 16.5 8.40078 16.5 9.67578C16.5 10.1258 16.8 10.4258 17.25 10.4258C17.7 10.4258 18 10.0508 18 9.67578C18 9.30078 18.3 8.92578 18.75 8.92578C19.2 8.92578 19.5 9.22578 19.5 9.67578V12.0008H14.25V11.2508C14.25 10.8008 13.95 10.5008 13.5 10.5008H2.25C1.8 10.5008 1.5 10.8008 1.5 11.2508V21.7508C1.5 22.2008 1.8 22.5008 2.25 22.5008H21.75C22.2 22.5008 22.5 22.1258 22.5 21.7508V12.7508C22.5 12.3008 22.2 12.0008 21.75 12.0008ZM12.75 12.0008V13.4258H3V12.0008H12.75ZM3 14.9258H12.75V21.0008H3V14.9258ZM21 21.0008H14.25V13.5008H21V21.0008Z" fill="#006EB7"/>
<path id="Vector_2" d="M4.5 7.5H12C12.75 7.5 12.9 6.675 12.6 6.3L10.5 3.525V2.25C10.5 1.8 10.2 1.5 9.75 1.5H6.75C6.3 1.5 6 1.8 6 2.25V3.525L3.9 6.3C3.6 6.75 3.825 7.5 4.5 7.5ZM7.35 4.2C7.425 4.05 7.5 3.9 7.5 3.75V3H9V3.75C9 3.9 9.075 4.05 9.15 4.2L10.5 6H6L7.35 4.2Z" fill="#006EB7"/>
<path id="Vector_3" d="M16.5 16.5H18.75C19.2 16.5 19.5 16.2 19.5 15.75C19.5 15.3 19.2 15 18.75 15H16.5C16.05 15 15.75 15.3 15.75 15.75C15.75 16.2 16.05 16.5 16.5 16.5Z" fill="#006EB7"/>
</g>
</g>
</g>
</svg>
