<svg viewBox="0 0 24 24" fill="none" xmlns="http://www.w3.org/2000/svg">
<g id="fi_5201613" clip-path="url(#clip0_142_4428)">
<g id="Group">
<path id="Vector" d="M17.2392 21.0907V13.53C17.2392 12.6134 16.6514 11.8318 15.833 11.5416V9.40686C15.833 7.61984 14.3792 6.16602 12.5922 6.16602H4.64709C2.86008 6.16602 1.40625 7.61984 1.40625 9.40686V11.5416C0.587906 11.8318 0 12.6134 0 13.53V21.0907C0 21.479 0.314812 21.7939 0.703125 21.7939H1.40625V23.2967C1.40625 23.685 1.72106 23.9998 2.10938 23.9998C2.49769 23.9998 2.8125 23.685 2.8125 23.2967V21.7939H14.4268V23.2967C14.4268 23.685 14.7416 23.9998 15.1299 23.9998C15.5183 23.9998 15.8331 23.685 15.8331 23.2967V21.7939H16.5362C16.9245 21.7939 17.2392 21.479 17.2392 21.0907ZM4.64709 7.57227H12.5922C13.6038 7.57227 14.4268 8.39525 14.4268 9.40686V11.5416C13.6084 11.8318 13.0205 12.6134 13.0205 13.53V14.2965C10.1749 12.9451 7.27697 12.8442 4.2187 14.2965V13.53C4.2187 12.6134 3.63084 11.8318 2.81245 11.5416V9.40686C2.81245 8.39525 3.63548 7.57227 4.64709 7.57227ZM13.0205 17.5751H4.2187V15.8748C7.21181 14.2306 10.0275 14.2306 13.0205 15.8748V17.5751ZM4.2187 18.9814H13.0205V20.3876H4.2187V18.9814ZM1.40625 13.53C1.40625 13.1423 1.72167 12.8269 2.10938 12.8269C2.49708 12.8269 2.8125 13.1423 2.8125 13.53V20.3876H1.40625V13.53ZM15.833 20.3876H14.4268V13.53C14.4268 13.1423 14.7421 12.8269 15.1299 12.8269C15.5176 12.8269 15.833 13.1423 15.833 13.53V20.3876Z" fill="#006EB7"/>
<path id="Vector_2" d="M23.982 4.64175L23.0445 0.546234C22.9713 0.226594 22.687 0 22.3591 0H18.2637C17.9358 0 17.6515 0.226594 17.5783 0.546234L16.6408 4.64175C16.5401 5.08167 16.8748 5.50177 17.3262 5.50177H19.6083V22.5938H17.7159C17.3276 22.5938 17.0128 22.9086 17.0128 23.2969C17.0128 23.6852 17.3276 24 17.7159 24H22.9069C23.2952 24 23.61 23.6852 23.61 23.2969C23.61 22.9086 23.2952 22.5938 22.9069 22.5938H21.0145V5.50177H23.2966C23.7479 5.50177 24.0827 5.08177 23.982 4.64175ZM18.2084 4.09552L18.824 1.40625H21.7988L22.4144 4.09552H18.2084Z" fill="#006EB7"/>
</g>
</g>
<defs>
<clipPath id="clip0_142_4428">
<rect width="24" height="24" fill="white"/>
</clipPath>
</defs>
</svg>
