<svg viewBox="0 0 24 24" fill="none" xmlns="http://www.w3.org/2000/svg">
<g id="fi_4666951" clip-path="url(#clip0_142_13762)">
<g id="Group">
<path id="Vector" d="M20.7933 7.42505C20.4647 6.57394 19.8994 5.81592 19.1752 5.26341C18.3195 4.61063 17.2972 4.26562 16.2188 4.26562C15.1759 4.26562 14.1883 4.58944 13.3586 5.19183C13.0161 4.63683 12.5662 4.15425 12.0282 3.76945C11.196 3.17405 10.2136 2.85938 9.1875 2.85938C6.69736 2.85938 4.63317 4.7183 4.30969 7.12125C1.88034 7.44155 0 9.50738 0 12C0 13.0771 0.354656 14.1015 1.02572 14.9622C1.58766 15.683 2.35247 16.2465 3.20667 16.575C3.53531 17.4261 4.10058 18.1841 4.82484 18.7366C5.6805 19.3894 6.7028 19.7344 7.78125 19.7344C8.82417 19.7344 9.81178 19.4106 10.6414 18.8082C10.9839 19.3632 11.4338 19.8457 11.9718 20.2305C12.804 20.826 13.7864 21.1406 14.8125 21.1406C17.3026 21.1406 19.3668 19.2817 19.6903 16.8787C22.1197 16.5585 24 14.4926 24 12C24 10.9229 23.6453 9.8985 22.9743 9.03783C22.4123 8.31698 21.6476 7.75355 20.7933 7.42505ZM19.0312 15.5156C18.6429 15.5156 18.3281 15.8304 18.3281 16.2188C18.3281 18.1573 16.751 19.7344 14.8125 19.7344C13.3553 19.7344 12.0347 18.8077 11.5263 17.4285C11.4418 17.1991 11.2441 17.0301 11.0043 16.9822C10.7641 16.9342 10.5169 17.0147 10.3509 17.1937C9.67284 17.9252 8.76023 18.3281 7.78125 18.3281C6.23006 18.3281 4.88452 17.3198 4.43297 15.819C4.365 15.5931 4.18819 15.4162 3.96225 15.3483C2.45728 14.8955 1.40625 13.5186 1.40625 12C1.40625 10.0615 3.00436 8.48438 4.96875 8.48438C5.35706 8.48438 5.67188 8.16956 5.67188 7.78125C5.67188 5.84273 7.24898 4.26562 9.1875 4.26562C10.6447 4.26562 11.9653 5.1923 12.4737 6.5715C12.5582 6.80091 12.7559 6.96994 12.9957 7.0178C13.2354 7.06566 13.4828 6.98559 13.6491 6.8063C14.3272 6.07477 15.2398 5.67188 16.2188 5.67188C17.7699 5.67188 19.1155 6.6802 19.567 8.181C19.635 8.40694 19.8118 8.58375 20.0378 8.65172C21.5427 9.10448 22.5938 10.4814 22.5938 12C22.5938 13.9385 20.9956 15.5156 19.0312 15.5156Z" fill="#006EB7"/>
<path id="Vector_2" d="M21.8906 4.21875C23.0537 4.21875 24 3.27248 24 2.10938C24 0.946266 23.0537 0 21.8906 0C20.7275 0 19.7812 0.946266 19.7812 2.10938C19.7812 3.27248 20.7275 4.21875 21.8906 4.21875ZM21.8906 1.40625C22.2783 1.40625 22.5938 1.72167 22.5938 2.10938C22.5938 2.49708 22.2783 2.8125 21.8906 2.8125C21.5029 2.8125 21.1875 2.49708 21.1875 2.10938C21.1875 1.72167 21.5029 1.40625 21.8906 1.40625Z" fill="#006EB7"/>
<path id="Vector_3" d="M2.10938 19.7812C0.946266 19.7812 0 20.7275 0 21.8906C0 23.0537 0.946266 24 2.10938 24C3.27248 24 4.21875 23.0537 4.21875 21.8906C4.21875 20.7275 3.27248 19.7812 2.10938 19.7812ZM2.10938 22.5938C1.72167 22.5938 1.40625 22.2783 1.40625 21.8906C1.40625 21.5029 1.72167 21.1875 2.10938 21.1875C2.49708 21.1875 2.8125 21.5029 2.8125 21.8906C2.8125 22.2783 2.49708 22.5938 2.10938 22.5938Z" fill="#006EB7"/>
<path id="Vector_4" d="M12 12.7031C12.3883 12.7031 12.7031 12.3883 12.7031 12C12.7031 11.6117 12.3883 11.2969 12 11.2969C11.6117 11.2969 11.2969 11.6117 11.2969 12C11.2969 12.3883 11.6117 12.7031 12 12.7031Z" fill="#006EB7"/>
<path id="Vector_5" d="M21.8438 19.7344C22.2321 19.7344 22.5469 19.4196 22.5469 19.0312C22.5469 18.6429 22.2321 18.3281 21.8438 18.3281C21.4554 18.3281 21.1406 18.6429 21.1406 19.0312C21.1406 19.4196 21.4554 19.7344 21.8438 19.7344Z" fill="#006EB7"/>
<path id="Vector_6" d="M2.15625 5.67188C2.54458 5.67188 2.85938 5.35708 2.85938 4.96875C2.85938 4.58042 2.54458 4.26562 2.15625 4.26562C1.76792 4.26562 1.45312 4.58042 1.45312 4.96875C1.45312 5.35708 1.76792 5.67188 2.15625 5.67188Z" fill="#006EB7"/>
<path id="Vector_7" d="M9.1875 9.89062C9.57583 9.89062 9.89062 9.57583 9.89062 9.1875C9.89062 8.79917 9.57583 8.48438 9.1875 8.48438C8.79917 8.48438 8.48438 8.79917 8.48438 9.1875C8.48438 9.57583 8.79917 9.89062 9.1875 9.89062Z" fill="#006EB7"/>
<path id="Vector_8" d="M14.8125 15.5156C15.2008 15.5156 15.5156 15.2008 15.5156 14.8125C15.5156 14.4242 15.2008 14.1094 14.8125 14.1094C14.4242 14.1094 14.1094 14.4242 14.1094 14.8125C14.1094 15.2008 14.4242 15.5156 14.8125 15.5156Z" fill="#006EB7"/>
<path id="Vector_9" d="M16.2188 9.89062C16.6071 9.89062 16.9219 9.57583 16.9219 9.1875C16.9219 8.79917 16.6071 8.48438 16.2188 8.48438C15.8304 8.48438 15.5156 8.79917 15.5156 9.1875C15.5156 9.57583 15.8304 9.89062 16.2188 9.89062Z" fill="#006EB7"/>
<path id="Vector_10" d="M7.78125 15.5156C8.16958 15.5156 8.48438 15.2008 8.48438 14.8125C8.48438 14.4242 8.16958 14.1094 7.78125 14.1094C7.39292 14.1094 7.07812 14.4242 7.07812 14.8125C7.07812 15.2008 7.39292 15.5156 7.78125 15.5156Z" fill="#006EB7"/>
<path id="Vector_11" d="M4.96875 12.7031C5.35708 12.7031 5.67188 12.3883 5.67188 12C5.67188 11.6117 5.35708 11.2969 4.96875 11.2969C4.58042 11.2969 4.26562 11.6117 4.26562 12C4.26562 12.3883 4.58042 12.7031 4.96875 12.7031Z" fill="#006EB7"/>
<path id="Vector_12" d="M19.0312 12.7031C19.4196 12.7031 19.7344 12.3883 19.7344 12C19.7344 11.6117 19.4196 11.2969 19.0312 11.2969C18.6429 11.2969 18.3281 11.6117 18.3281 12C18.3281 12.3883 18.6429 12.7031 19.0312 12.7031Z" fill="#006EB7"/>
<path id="Vector_13" d="M9.1875 22.5469C9.57583 22.5469 9.89062 22.2321 9.89062 21.8438C9.89062 21.4554 9.57583 21.1406 9.1875 21.1406C8.79917 21.1406 8.48438 21.4554 8.48438 21.8438C8.48438 22.2321 8.79917 22.5469 9.1875 22.5469Z" fill="#006EB7"/>
<path id="Vector_14" d="M13.4062 2.85938C13.7946 2.85938 14.1094 2.54458 14.1094 2.15625C14.1094 1.76792 13.7946 1.45312 13.4062 1.45312C13.0179 1.45312 12.7031 1.76792 12.7031 2.15625C12.7031 2.54458 13.0179 2.85938 13.4062 2.85938Z" fill="#006EB7"/>
</g>
</g>
<defs>
<clipPath id="clip0_142_13762">
<rect width="24" height="24" fill="white"/>
</clipPath>
</defs>
</svg>
