<svg viewBox="0 0 24 24" fill="none" xmlns="http://www.w3.org/2000/svg">
<g id="fi_8200497" clip-path="url(#clip0_142_9156)">
<g id="Group">
<path id="Vector" d="M22.4463 18.7503C22.1387 18.6003 21.9398 18.279 21.9398 17.9318V17.2845C21.9896 14.7057 21.3687 12.1433 20.1439 9.87352C19.0231 7.79634 17.4199 6.0075 15.4833 4.66617L17.4553 1.03903C17.5737 0.821156 17.5687 0.557016 17.442 0.343828C17.3153 0.130641 17.0856 0 16.8376 0H15.7812C14.3895 0 13.0695 0.466875 12 1.32652C10.9305 0.466875 9.61045 0 8.21878 0H7.16241C6.91439 0 6.6848 0.130641 6.55805 0.343781C6.4313 0.556969 6.42623 0.821109 6.54469 1.03898L8.26003 4.194H6.94078C6.61734 4.194 6.35414 3.93061 6.35414 3.60689C6.35414 3.21858 6.03933 2.90377 5.65102 2.90377C5.2627 2.90377 4.94789 3.21858 4.94789 3.60689C4.94789 4.70606 5.84189 5.60025 6.94078 5.60025H7.30556C5.90761 6.79688 4.73391 8.24672 3.85608 9.87352C2.63133 12.1433 2.01038 14.7057 2.06016 17.2845V17.9318C2.06016 18.279 1.86136 18.6003 1.55372 18.7503C0.595313 19.2175 0 20.17 0 21.236C0 22.7601 1.23956 24 2.76323 24H21.2368C22.7604 24 24 22.7601 24 21.236C24 20.17 23.4047 19.2176 22.4463 18.7503ZM8.34591 1.40794C9.53878 1.43981 10.6555 1.91958 11.5027 2.76703C11.6346 2.89894 11.8135 2.97309 12 2.97309C12.1865 2.97309 12.3654 2.89898 12.4972 2.76703C13.3444 1.91953 14.4611 1.43981 15.654 1.40794L14.1394 4.194H9.86063L8.34591 1.40794ZM21.2368 22.5938H2.76323C2.01502 22.5938 1.40625 21.9847 1.40625 21.236C1.40625 20.7121 1.69889 20.244 2.16994 20.0143C2.95748 19.6303 3.46636 18.8129 3.46636 17.9318V17.2778C3.46636 17.2732 3.46631 17.2685 3.46622 17.2639C3.41995 14.9248 3.98269 12.6001 5.09363 10.5413C6.17255 8.5418 7.74483 6.83719 9.64837 5.60025H11.2234L9.79767 8.62659C9.6322 8.97787 9.78281 9.39684 10.1341 9.56231C10.4854 9.72783 10.9043 9.57717 11.0698 9.22589L12 7.25142L12.9302 9.22589C13.0501 9.48038 13.3029 9.62953 13.5667 9.62953C13.6671 9.62953 13.7691 9.60797 13.8659 9.56231C14.2172 9.3968 14.3678 8.97787 14.2023 8.62659L12.7766 5.60025H14.3516C16.2552 6.83719 17.8275 8.5418 18.9064 10.5413C20.0173 12.6001 20.58 14.9247 20.5338 17.2639C20.5337 17.2685 20.5336 17.2732 20.5336 17.2778V17.9318C20.5336 18.8129 21.0425 19.6303 21.83 20.0143C22.3011 20.244 22.5938 20.7121 22.5938 21.236C22.5938 21.9847 21.985 22.5938 21.2368 22.5938Z" fill="#006EB7"/>
<path id="Vector_2" d="M13.6465 14.1976C13.9741 13.9891 14.0707 13.5545 13.8622 13.227L13.5054 12.6664C13.188 12.124 12.6263 11.8008 11.9992 11.8008C11.366 11.8008 10.7994 12.1304 10.4837 12.6825L10.1838 13.2069C10.0126 13.1212 9.80765 13.1045 9.61509 13.1791C9.25298 13.3193 9.07312 13.7266 9.21333 14.0887L9.52003 14.8807C9.62587 15.154 9.88828 15.3299 10.1753 15.3299C10.2052 15.3299 10.2355 15.328 10.2658 15.324L11.0486 15.2229C11.4337 15.1731 11.7056 14.8206 11.6558 14.4355C11.6302 14.2368 11.5234 14.0687 11.3736 13.959L11.7044 13.3805C11.7907 13.2295 11.9261 13.207 11.9991 13.207C12.0721 13.207 12.2075 13.2295 12.2939 13.3805C12.2993 13.3902 12.3051 13.3997 12.3111 13.409L12.6757 13.982C12.8843 14.3096 13.319 14.4062 13.6465 14.1976Z" fill="#006EB7"/>
<path id="Vector_3" d="M15.7606 16.5314C15.9197 16.4247 16.0354 16.2544 16.0653 16.0498C16.1215 15.6656 15.8555 15.3086 15.4713 15.2524L14.6378 15.1305C14.3177 15.0837 14.0065 15.2616 13.8847 15.5615L13.5852 16.2988C13.439 16.6586 13.6121 17.0687 13.9719 17.2149C14.0586 17.2501 14.1482 17.2668 14.2364 17.2668C14.3368 17.2668 14.4353 17.2448 14.5253 17.2042L14.8575 17.7853C14.9502 17.9477 14.8875 18.0906 14.8562 18.1445C14.8191 18.2086 14.7315 18.316 14.5628 18.316H14.5627L13.8507 18.3157C13.8506 18.3157 13.8505 18.3157 13.8504 18.3157C13.4623 18.3157 13.1475 18.6303 13.1473 19.0185C13.1472 19.4068 13.4618 19.7218 13.8502 19.7219L14.5622 19.7222H14.5627C15.1912 19.7222 15.7556 19.3963 16.0724 18.8505C16.3922 18.2996 16.3944 17.6405 16.0784 17.0876L15.7606 16.5314Z" fill="#006EB7"/>
<path id="Vector_4" d="M11.3599 17.9573C11.1244 17.6487 10.6832 17.5893 10.3744 17.8248C10.2116 17.949 10.119 18.1304 10.1015 18.3194L9.43692 18.3186C9.26803 18.3184 9.18061 18.2108 9.14353 18.1467C9.11288 18.0937 9.05203 17.9549 9.13786 17.7964L9.46866 17.2675C9.67458 16.9383 9.5746 16.5044 9.24539 16.2985C8.91614 16.0926 8.48232 16.1925 8.27644 16.5218L7.93678 17.0648C7.932 17.0724 7.92741 17.0801 7.923 17.0879C7.60613 17.6404 7.60735 18.2994 7.92628 18.8508C8.24236 19.3973 8.80641 19.724 9.43514 19.7249L10.0592 19.7257C10.0713 19.9192 10.1621 20.1068 10.3267 20.2357C10.4554 20.3365 10.6081 20.3853 10.7597 20.3853C10.9685 20.3853 11.1751 20.2927 11.3138 20.1156L11.8361 19.4486C12.0335 19.1966 12.0357 18.8431 11.8415 18.5886L11.3599 17.9573Z" fill="#006EB7"/>
</g>
</g>
<defs>
<clipPath id="clip0_142_9156">
<rect width="24" height="24" fill="white"/>
</clipPath>
</defs>
</svg>
