<svg viewBox="0 0 24 24" fill="none" xmlns="http://www.w3.org/2000/svg">
<g id="fi_2881380" clip-path="url(#clip0_120_2516)">
<g id="Group">
<path id="Vector" d="M14.4819 15.8514C14.4819 15.8514 14.0088 15.6935 13.3516 15.4747C11.0849 14.7192 9.28045 12.9148 8.52492 10.6482C8.30606 9.99083 8.14819 9.51772 8.14819 9.51772C8.05247 9.2307 7.78378 9.03711 7.4812 9.03711C7.17863 9.03711 6.90998 9.23075 6.81422 9.51777C6.81422 9.51777 6.65644 9.99087 6.43762 10.648C5.68205 12.9147 3.87764 14.7192 1.611 15.4747C0.953719 15.6935 0.480609 15.8514 0.480609 15.8514C0.193594 15.9471 0 16.2158 0 16.5184C0 16.821 0.193641 17.0896 0.480656 17.1854C0.480656 17.1854 0.953766 17.3432 1.61081 17.562C3.87759 18.3176 5.68205 20.122 6.43758 22.3886C6.65644 23.0458 6.81422 23.519 6.81422 23.519C6.90998 23.806 7.17858 23.9996 7.4812 23.9996H7.48125C7.78383 23.9996 8.05252 23.806 8.14823 23.519C8.14823 23.519 8.30611 23.0459 8.52492 22.3888C9.2805 20.122 11.0849 18.3176 13.3515 17.562C14.0088 17.3432 14.4819 17.1854 14.4819 17.1854C14.7689 17.0896 14.9625 16.821 14.9625 16.5184C14.9625 16.2158 14.7689 15.9471 14.4819 15.8514ZM9.3742 18.4113C8.57798 19.2075 7.9327 20.1564 7.48125 21.1888C7.0298 20.1565 6.38456 19.2076 5.58825 18.4113C4.79203 17.615 3.84309 16.9698 2.81077 16.5184C3.84305 16.0669 4.79194 15.4217 5.58825 14.6254C6.38447 13.8291 7.02975 12.8802 7.4812 11.8479C7.93266 12.8802 8.57789 13.829 9.3742 14.6254C10.1704 15.4216 11.1193 16.0669 12.1517 16.5183C11.1194 16.9698 10.1706 17.615 9.3742 18.4113Z" fill="white"/>
<path id="Vector_2" d="M18.0252 11.9496C18.3413 11.9496 18.6087 11.7409 18.6972 11.4538C19.4537 9.20006 21.2476 7.4055 23.5008 6.648C23.7897 6.56067 24 6.29231 24 5.97487C24 5.65875 23.7913 5.39138 23.5042 5.30283C21.2505 4.54636 19.4559 2.7525 18.6984 0.499219C18.611 0.210281 18.3427 0 18.0252 0C17.7091 0 17.4417 0.208734 17.3531 0.495844C16.5967 2.74955 14.8028 4.54416 12.5495 5.30166C12.2606 5.38898 12.0504 5.65734 12.0504 5.97478C12.0504 6.29091 12.2591 6.55828 12.5462 6.64683C14.7998 7.40325 16.5943 9.19697 17.3519 11.45C17.4392 11.7392 17.7076 11.9496 18.0252 11.9496ZM14.4931 5.97483C15.2311 5.56594 15.9128 5.05448 16.5088 4.45842C17.1049 3.86236 17.6163 3.1807 18.0252 2.44266C18.4341 3.1807 18.9456 3.86236 19.5416 4.45842C20.1377 5.05448 20.8194 5.56594 21.5574 5.97483C20.8194 6.38372 20.1377 6.89517 19.5416 7.49123C18.9456 8.0873 18.4341 8.76895 18.0252 9.507C17.6163 8.76895 17.1049 8.0873 16.5088 7.49123C15.9128 6.89517 15.2311 6.38372 14.4931 5.97483Z" fill="white"/>
<path id="Vector_3" d="M23.5048 19.612C22.3117 19.2091 21.3613 18.2594 20.9575 17.0668C20.8699 16.7783 20.6018 16.5684 20.2846 16.5684C19.9687 16.5684 19.7015 16.7768 19.6127 17.0636C19.2099 18.2567 18.2603 19.207 17.0677 19.6109C16.7791 19.6984 16.5692 19.9666 16.5692 20.2838C16.5692 20.5997 16.7776 20.8669 17.0644 20.9556C18.2574 21.3585 19.2078 22.3081 19.6117 23.5007C19.6992 23.7893 19.9674 23.9992 20.2846 23.9992C20.6004 23.9992 20.8677 23.7908 20.9564 23.504C21.3592 22.311 22.3089 21.3606 23.5015 20.9567C23.7901 20.8691 24 20.601 24 20.2838C24 19.9679 23.7916 19.7007 23.5048 19.612ZM20.2846 21.7301C19.8973 21.1627 19.4057 20.6711 18.8383 20.2839C19.4057 19.8966 19.8973 19.405 20.2846 18.8376C20.6718 19.405 21.1634 19.8966 21.7308 20.2839C21.1634 20.6711 20.6718 21.1627 20.2846 21.7301Z" fill="white"/>
</g>
</g>
<defs>
<clipPath id="clip0_120_2516">
<rect width="24" height="24" fill="white"/>
</clipPath>
</defs>
</svg>
