<svg viewBox="0 0 24 24" fill="none" xmlns="http://www.w3.org/2000/svg">
<g id="fi_9501918">
<g id="Layer_4">
<g id="Group">
<path id="Vector" d="M20.9925 17.7845L20.5062 17.451L18.3212 8.6745C18.0902 7.4685 17.272 6.47875 16.1307 6.025L15.141 5.63175C16.3435 5.20475 17.2125 4.067 17.2125 2.71925V2.2735C17.2125 1.57125 16.6412 1 15.9392 1L12.6792 1.794C12.4132 1.85875 12.135 1.8575 11.8745 1.78725L9.03025 1.023L8.85125 1C8.149 1 7.577 1.57125 7.577 2.2735V2.71925C7.577 3.8835 8.22925 4.88725 9.18 5.41775L8.10775 5.8065C6.82425 6.271 5.93075 7.40275 5.779 8.7315L5.31775 11.7133C5.2475 12.163 5.03275 12.587 4.71 12.9097C4.14425 13.4742 3.7835 14.2238 3.6945 15.0205L3.4635 17.088C3.43525 17.3405 3.2995 17.5688 2.99075 17.7835C2.325 18.2453 1.91975 19.0057 1.90625 19.8172L1.89675 20.433C1.886 21.115 2.144 21.7593 2.622 22.2453C3.1015 22.7327 3.74025 23.0002 4.42275 23.0002H19.576C20.26 23.0002 20.9007 22.7315 21.3795 22.2428C21.859 21.7525 22.1155 21.107 22.102 20.4223L22.0897 19.8172C22.0742 19.004 21.6637 18.2437 20.9925 17.7845ZM8.96 2.43675L11.515 3.12275C12.0012 3.2525 12.5177 3.25775 13.0127 3.13625L15.8297 2.43125V2.719C15.8297 3.667 15.0587 4.438 14.1107 4.438H10.6792C9.73125 4.438 8.96025 3.667 8.96025 2.719L8.96 2.43675ZM20.393 21.2743C20.1755 21.4958 19.886 21.6173 19.5767 21.6173H4.42325C4.11475 21.6173 3.825 21.4957 3.60825 21.2755C3.3915 21.0555 3.27475 20.7638 3.28 20.4545L3.2895 19.8388C3.2955 19.4728 3.4785 19.1285 3.881 18.849C4.417 18.4763 4.7655 17.8903 4.8385 17.242L5.06875 15.1745C5.1235 14.6883 5.343 14.232 5.688 13.8875C6.224 13.3515 6.5685 12.6735 6.6845 11.924L7.149 8.91525C7.24425 8.08475 7.79175 7.392 8.579 7.10575L10.793 6.30325L9.33 8.83925C9.1395 9.17 9.253 9.59275 9.584 9.7845C9.69275 9.8465 9.8115 9.87625 9.92825 9.87625C10.1672 9.87625 10.4002 9.752 10.5277 9.5305L12.2685 6.5135L14.0077 9.5305C14.136 9.752 14.3682 9.87625 14.6072 9.87625C14.7247 9.87625 14.8435 9.8465 14.9522 9.7845C15.283 9.59275 15.3965 9.17 15.2055 8.83925L13.9387 6.64275L15.62 7.3105C16.3195 7.58725 16.8212 8.195 16.9705 8.9715L19.0887 17.4805H16.4162C16.0347 17.4805 15.7247 17.7898 15.7247 18.172C15.7247 18.5543 16.0347 18.8635 16.4162 18.8635H20.1212L20.2105 18.9242C20.5142 19.1322 20.7 19.4765 20.7075 19.844L20.7197 20.449C20.7257 20.7595 20.6097 21.0527 20.393 21.2743Z" fill="#006EB7"/>
</g>
</g>
</g>
</svg>
