<svg viewBox="0 0 24 24" fill="none" xmlns="http://www.w3.org/2000/svg">
<g id="fi_11094614" clip-path="url(#clip0_175_578)">
<g id="Group">
<path id="Vector" d="M21.5521 16.7734C20.2024 16.7734 19.1043 17.8715 19.1043 19.2213C19.1043 20.5711 20.2024 21.6692 21.5521 21.6692C22.9019 21.6692 24 20.5711 24 19.2213C24 17.8715 22.9019 16.7734 21.5521 16.7734ZM21.5521 20.2629C20.9778 20.2629 20.5105 19.7956 20.5105 19.2212C20.5105 18.6469 20.9778 18.1796 21.5521 18.1796C22.1265 18.1796 22.5937 18.6469 22.5937 19.2213C22.5937 19.7957 22.1265 20.2629 21.5521 20.2629Z" fill="#006EB7"/>
<path id="Vector_2" d="M19.625 14.2417C20.3255 13.3063 20.6958 12.1927 20.6958 11.0212C20.6958 9.93202 20.3633 8.86899 19.7512 7.97733C20.0053 7.51763 20.1901 7.02328 20.3002 6.51038C20.4421 6.52903 20.5858 6.53845 20.7308 6.53845C22.5335 6.53845 24 5.07188 24 3.26925C24 1.46663 22.5335 0 20.7308 0C19.7774 0 18.9009 0.40275 18.2911 1.08952C17.3627 0.382031 16.2361 0 15.0436 0C14.0149 0 13.0149 0.291609 12.1516 0.843281C11.4983 1.2608 10.9455 1.81144 10.5277 2.45691C9.98353 2.27545 9.41508 2.18381 8.83073 2.18381C8.44008 2.18381 8.05402 2.22553 7.67686 2.30813C7.02023 0.920531 5.60784 0 4.03181 0C1.80867 0 0 1.80867 0 4.03181C0 6.06539 1.51336 7.75214 3.47302 8.025C3.5797 9.28059 4.11853 10.4481 5.01703 11.352C5.85872 12.1987 6.93342 12.7311 8.09737 12.8889V14.6144C8.09737 15.7826 9.04781 16.733 10.216 16.733C11.1093 16.733 11.8752 16.1774 12.1863 15.3937C12.4922 15.6131 12.821 15.8 13.1682 15.9512V18.512C13.1682 19.6802 14.1187 20.6306 15.2869 20.6306C16.4552 20.6306 17.4056 19.6802 17.4056 18.512V15.9777C18.2787 15.6078 19.054 15.0041 19.625 14.2417ZM16.4997 14.8138C16.2034 14.9059 15.9993 15.1768 15.9993 15.487V18.4913C15.9993 18.8744 15.7055 19.2045 15.3228 19.2234C14.9137 19.2436 14.5745 18.9167 14.5745 18.5119V15.4667C14.5745 15.1598 14.3744 14.8915 14.0827 14.796C13.3311 14.5502 12.6753 14.089 12.1859 13.462C11.8193 12.9577 10.9283 13.2197 10.9285 13.914V14.5936C10.9285 14.9768 10.6346 15.307 10.2519 15.3259C9.84286 15.3461 9.50362 15.0191 9.50362 14.6144V12.235C9.50362 11.8485 9.19153 11.5344 8.80495 11.5319C6.62948 11.5181 4.85962 9.73683 4.85962 7.56117C4.94841 7.12739 4.57898 6.56222 4.03181 6.65738C2.58408 6.65738 1.40625 5.47955 1.40625 4.03181C1.40625 2.58408 2.58408 1.40625 4.03181 1.40625C5.21602 1.40625 6.25823 2.20392 6.56634 3.34608C6.62822 3.6862 7.12945 3.97753 7.48369 3.82439C7.91494 3.66891 8.36817 3.59006 8.83073 3.59006C9.42703 3.59006 10.0003 3.71892 10.5345 3.97313C10.8832 4.13892 11.3004 3.99272 11.469 3.64538C12.1398 2.26425 13.5095 1.40625 15.0436 1.40625C16.138 1.40625 17.1575 1.84209 17.9142 2.63353C18.0733 2.79984 18.3036 2.87766 18.531 2.84231C18.7583 2.80678 18.9539 2.66227 19.0546 2.45536C19.3727 1.80183 20.0247 1.39828 20.7523 1.40639C21.7415 1.41741 22.5607 2.21878 22.5928 3.20752C22.627 4.26277 21.7785 5.1322 20.7308 5.1322C20.4798 5.1322 20.2363 5.08298 20.0067 4.98595C19.6355 4.79302 19.0178 5.07905 19.0084 5.58745C18.9705 6.31711 18.7326 7.02019 18.3206 7.6207C18.1419 7.88105 18.1587 8.22858 18.3617 8.47045C18.96 9.18347 19.2894 10.0893 19.2894 11.0212C19.2894 11.8864 19.0162 12.7086 18.4994 13.3988C18.0001 14.0655 17.2901 14.5679 16.4997 14.8138Z" fill="#006EB7"/>
<path id="Vector_3" d="M3.87202 16.2578C1.73695 16.2578 0 17.9948 0 20.1298C0 22.2648 1.73695 24.0018 3.87202 24.0018C6.00703 24.0018 7.74398 22.2648 7.74398 20.1298C7.74398 17.9948 6.00698 16.2578 3.87202 16.2578ZM3.87202 22.5955C2.51236 22.5955 1.40625 21.4894 1.40625 20.1298C1.40625 18.7702 2.51236 17.6641 3.87202 17.6641C5.23162 17.6641 6.33773 18.7702 6.33773 20.1298C6.33773 21.4894 5.23158 22.5955 3.87202 22.5955Z" fill="#006EB7"/>
<path id="Vector_4" d="M9.64219 22.7188C10.0305 22.7188 10.3453 22.404 10.3453 22.0156C10.3453 21.6273 10.0305 21.3125 9.64219 21.3125C9.25386 21.3125 8.93906 21.6273 8.93906 22.0156C8.93906 22.404 9.25386 22.7188 9.64219 22.7188Z" fill="#006EB7"/>
<path id="Vector_5" d="M5.00063 15.2227C5.38895 15.2227 5.70375 14.9079 5.70375 14.5195C5.70375 14.1312 5.38895 13.8164 5.00063 13.8164C4.6123 13.8164 4.2975 14.1312 4.2975 14.5195C4.2975 14.9079 4.6123 15.2227 5.00063 15.2227Z" fill="#006EB7"/>
</g>
</g>
<defs>
<clipPath id="clip0_175_578">
<rect width="24" height="24" fill="white"/>
</clipPath>
</defs>
</svg>
