<svg viewBox="0 0 24 24" fill="none" xmlns="http://www.w3.org/2000/svg">
<g id="fi_441885" clip-path="url(#clip0_175_411)">
<g id="Group">
<g id="Group_2">
<g id="Group_3">
<path id="Vector" d="M21.8438 10.5H4.5V3.75C4.5 2.5095 5.5095 1.5 6.75 1.5C7.49475 1.5 8.16975 1.8705 8.583 2.45475C7.089 2.94825 6 4.3425 6 6C6 6.414 6.336 6.75 6.75 6.75H12.75C12.7545 6.75 12.7598 6.74925 12.765 6.75C13.179 6.75 13.515 6.414 13.515 6C13.515 5.94225 13.5083 5.88675 13.4963 5.83275C13.4153 3.99375 11.9977 2.511 10.197 2.2935C9.6165 0.9225 8.2695 0 6.75 0C4.68225 0 3 1.68225 3 3.75V10.5H2.15625C0.9675 10.5 0 11.4675 0 12.6562V12.8438C0 13.4932 0.29475 14.0693 0.75 14.4653V18.75C0.75 21.645 3.105 24 6 24H18C20.895 24 23.25 21.645 23.25 18.75V14.4653C23.7052 14.07 24 13.4932 24 12.8438V12.6562C24 11.4675 23.0325 10.5 21.8438 10.5ZM9.75 3.75C10.728 3.75 11.562 4.377 11.8717 5.25H7.629C7.938 4.377 8.772 3.75 9.75 3.75ZM21.75 18.75C21.75 20.8177 20.0677 22.5 18 22.5H6C3.93225 22.5 2.25 20.8177 2.25 18.75V15H21.75V18.75ZM22.5 12.8438C22.5 13.2052 22.2052 13.5 21.8438 13.5H2.15625C1.79475 13.5 1.5 13.2052 1.5 12.8438V12.6562C1.5 12.2948 1.79475 12 2.15625 12H21.8438C22.2052 12 22.5 12.2948 22.5 12.6562V12.8438Z" fill="#006EB7"/>
<path id="Vector_2" d="M6.75 7.875V9.375C6.75 9.582 6.918 9.75 7.125 9.75C7.332 9.75 7.5 9.582 7.5 9.375V7.875C7.5 7.668 7.332 7.5 7.125 7.5C6.918 7.5 6.75 7.668 6.75 7.875Z" fill="#006EB7"/>
<path id="Vector_3" d="M12 7.875V9.375C12 9.582 12.168 9.75 12.375 9.75C12.582 9.75 12.75 9.582 12.75 9.375V7.875C12.75 7.668 12.582 7.5 12.375 7.5C12.168 7.5 12 7.668 12 7.875Z" fill="#006EB7"/>
<path id="Vector_4" d="M8.25 7.875V8.625C8.25 8.832 8.418 9 8.625 9C8.832 9 9 8.832 9 8.625V7.875C9 7.668 8.832 7.5 8.625 7.5C8.418 7.5 8.25 7.668 8.25 7.875Z" fill="#006EB7"/>
<path id="Vector_5" d="M10.5 7.875V8.625C10.5 8.832 10.668 9 10.875 9C11.082 9 11.25 8.832 11.25 8.625V7.875C11.25 7.668 11.082 7.5 10.875 7.5C10.668 7.5 10.5 7.668 10.5 7.875Z" fill="#006EB7"/>
</g>
</g>
</g>
</g>
<defs>
<clipPath id="clip0_175_411">
<rect width="24" height="24" fill="white"/>
</clipPath>
</defs>
</svg>
