<svg viewBox="0 0 24 24" fill="none" xmlns="http://www.w3.org/2000/svg">
<g id="fi_1203803" clip-path="url(#clip0_175_7410)">
<path id="Vector" d="M19.7173 3.51196C19.7173 1.57544 18.1419 0 16.2056 0H12.9619C11.8292 2.26538 11.5175 2.87952 8.87256 4.59723C7.8946 5.23242 6.78608 5.95239 5.66217 7.10541C4.39728 8.40289 3.93494 10.2729 4.50971 12.1C5.14197 14.1094 7.01972 15.4523 9.19062 15.4521H9.23145C10.7062 15.4406 11.5437 14.9275 12.2164 14.5151C12.7039 14.2165 12.999 14.0475 13.396 14.0475C13.764 14.0475 13.9034 14.1793 14.2108 14.5042C14.5838 14.8982 15.0945 15.4378 16.1629 15.4519C16.1777 15.4521 16.1928 15.4523 16.2076 15.4523C17.8422 15.4523 19.3136 14.2678 19.641 12.6806C19.6992 12.3986 19.7234 12.1154 19.7148 11.8358H19.7173V3.51196ZM18.2653 12.3968C18.0716 13.3352 17.157 14.0599 16.1814 14.0473C15.7066 14.0411 15.5378 13.8625 15.2309 13.5385C14.8733 13.1605 14.3833 12.6427 13.396 12.6427C12.5836 12.6427 12.0238 12.9857 11.4825 13.3174C10.877 13.6884 10.3052 14.0389 9.22065 14.0473C9.21057 14.0473 9.20087 14.0475 9.19098 14.0475C7.63697 14.0475 6.29645 13.0984 5.84986 11.6785C5.44025 10.3762 5.74805 9.02985 6.66797 8.08594C7.68274 7.04498 8.67664 6.39954 9.63776 5.77533C11.6373 4.47675 12.7094 3.64545 13.8301 1.40479H16.2056C17.3674 1.40479 18.3127 2.34998 18.3127 3.51178V9.12982C17.7112 8.67773 16.9763 8.42853 16.2056 8.42853C15.2675 8.42853 14.3857 8.79364 13.7223 9.45703L14.7156 10.4504C15.1135 10.0523 15.6427 9.83313 16.2056 9.83313C17.5001 9.83331 18.5515 11.009 18.2653 12.3968Z" fill="#006EB7"/>
<path id="Vector_2" d="M8.90405 17.2109L8.12494 18.3799C8.40381 18.5659 8.56384 18.8649 8.56384 19.2002C8.56384 19.5355 8.40381 19.8345 8.12494 20.0205C7.45825 20.4649 7.06036 21.2085 7.06036 22.0096C7.06036 22.8109 7.45825 23.5544 8.12494 23.9988L8.90405 22.8301C8.62518 22.644 8.46497 22.345 8.46497 22.0096C8.46497 21.6743 8.62518 21.3753 8.90405 21.1893C9.57074 20.7449 9.96863 20.0013 9.96863 19.2002C9.96863 18.3991 9.57074 17.6553 8.90405 17.2109Z" fill="#006EB7"/>
<path id="Vector_3" d="M12.416 17.2109L11.6367 18.3799C11.9158 18.5659 12.0758 18.8649 12.0758 19.2002C12.0758 19.5355 11.9158 19.8345 11.6367 20.0205C10.9702 20.4649 10.5721 21.2085 10.5721 22.0096C10.5721 22.8109 10.9702 23.5544 11.6367 23.9988L12.416 22.8301C12.137 22.644 11.9769 22.345 11.9769 22.0096C11.9769 21.6743 12.137 21.3753 12.416 21.1893C13.0825 20.7449 13.4806 20.0013 13.4806 19.2002C13.4806 18.3991 13.0825 17.6553 12.416 17.2109Z" fill="#006EB7"/>
<path id="Vector_4" d="M15.9278 17.2109L15.1487 18.3799C15.4276 18.5659 15.5876 18.8649 15.5876 19.2002C15.5876 19.5355 15.4276 19.8345 15.1487 20.0205C14.482 20.4649 14.0841 21.2085 14.0841 22.0096C14.0841 22.8109 14.482 23.5544 15.1487 23.9988L15.9278 22.8301C15.6489 22.644 15.4887 22.345 15.4887 22.0096C15.4887 21.6743 15.6489 21.3753 15.9278 21.1893C16.5945 20.7449 16.9924 20.0013 16.9924 19.2002C16.9924 18.3991 16.5945 17.6553 15.9278 17.2109Z" fill="#006EB7"/>
</g>
<defs>
<clipPath id="clip0_175_7410">
<rect width="24" height="24" fill="white"/>
</clipPath>
</defs>
</svg>
