<svg viewBox="0 0 24 24" fill="none" xmlns="http://www.w3.org/2000/svg">
<g id="fi_2704814">
<g id="new window, pop up">
<path id="Vector" d="M21.75 11.25C21.5511 11.25 21.3603 11.329 21.2197 11.4697C21.079 11.6103 21 11.8011 21 12V18.75C21 19.3467 20.7629 19.919 20.341 20.341C19.919 20.7629 19.3467 21 18.75 21H5.25C4.65326 21 4.08097 20.7629 3.65901 20.341C3.23705 19.919 3 19.3467 3 18.75V5.25C3 4.65326 3.23705 4.08097 3.65901 3.65901C4.08097 3.23705 4.65326 3 5.25 3H12C12.1989 3 12.3897 2.92098 12.5303 2.78033C12.671 2.63968 12.75 2.44891 12.75 2.25C12.75 2.05109 12.671 1.86032 12.5303 1.71967C12.3897 1.57902 12.1989 1.5 12 1.5H5.25C4.25544 1.5 3.30161 1.89509 2.59835 2.59835C1.89509 3.30161 1.5 4.25544 1.5 5.25V18.75C1.5 19.7446 1.89509 20.6984 2.59835 21.4016C3.30161 22.1049 4.25544 22.5 5.25 22.5H18.75C19.7446 22.5 20.6984 22.1049 21.4016 21.4016C22.1049 20.6984 22.5 19.7446 22.5 18.75V12C22.5 11.8011 22.421 11.6103 22.2803 11.4697C22.1397 11.329 21.9489 11.25 21.75 11.25Z" fill="#006EB7"/>
<path id="Vector_2" d="M16.5 3.00001H19.9425L11.4675 11.4675C11.3972 11.5372 11.3414 11.6202 11.3033 11.7116C11.2653 11.803 11.2457 11.901 11.2457 12C11.2457 12.099 11.2653 12.1971 11.3033 12.2884C11.3414 12.3798 11.3972 12.4628 11.4675 12.5325C11.5372 12.6028 11.6202 12.6586 11.7116 12.6967C11.803 12.7348 11.901 12.7544 12 12.7544C12.099 12.7544 12.1971 12.7348 12.2884 12.6967C12.3798 12.6586 12.4628 12.6028 12.5325 12.5325L21 4.06501V7.50001C21 7.69892 21.079 7.88969 21.2197 8.03034C21.3603 8.17099 21.5511 8.25001 21.75 8.25001C21.9489 8.25001 22.1397 8.17099 22.2803 8.03034C22.421 7.88969 22.5 7.69892 22.5 7.50001V2.25001C22.5006 2.15131 22.4817 2.05346 22.4443 1.96208C22.407 1.8707 22.352 1.78759 22.2825 1.71751C22.2124 1.648 22.1293 1.59301 22.0379 1.55568C21.9466 1.51836 21.8487 1.49944 21.75 1.50001H16.5C16.3011 1.50001 16.1103 1.57903 15.9697 1.71968C15.829 1.86033 15.75 2.0511 15.75 2.25001C15.75 2.44892 15.829 2.63969 15.9697 2.78034C16.1103 2.92099 16.3011 3.00001 16.5 3.00001Z" fill="#006EB7"/>
</g>
</g>
</svg>
