<svg viewBox="0 0 24 24" fill="none" xmlns="http://www.w3.org/2000/svg">
<g id="fi_8371426">
<g id="Layer 2">
<path id="Vector" d="M12 22.6072C11.702 22.6072 11.409 22.5308 11.149 22.3852L8.294 20.8002C6.46244 19.7819 4.93634 18.2925 3.87369 16.4864C2.81104 14.6802 2.25047 12.6228 2.25 10.5272V5.86618C2.24838 5.45781 2.39029 5.06184 2.65094 4.74746C2.91158 4.43308 3.27439 4.22026 3.676 4.14618C4.36425 4.00871 5.04324 3.82836 5.709 3.60618C6.026 3.50618 6.38 3.40118 6.788 3.28118C8.3153 2.83061 9.80136 2.2505 11.23 1.54718C11.4694 1.42878 11.7329 1.36719 12 1.36719C12.2671 1.36719 12.5306 1.42878 12.77 1.54718C14.1986 2.2505 15.6847 2.83061 17.212 3.28118C17.62 3.40118 17.974 3.50918 18.291 3.60618C18.9568 3.82836 19.6357 4.00871 20.324 4.14618C20.7256 4.22026 21.0884 4.43308 21.3491 4.74746C21.6097 5.06184 21.7516 5.45781 21.75 5.86618V10.5272C21.7495 12.6228 21.189 14.6802 20.1263 16.4864C19.0637 18.2925 17.5376 19.7819 15.706 20.8002L12.85 22.3862C12.5901 22.5311 12.2975 22.6072 12 22.6072ZM11.893 2.89318C10.3874 3.63386 8.82142 4.24474 7.212 4.71918C6.812 4.83818 6.461 4.94518 6.148 5.04118C5.42515 5.2809 4.68805 5.47528 3.941 5.62318C3.886 5.63541 3.83693 5.66629 3.80212 5.71058C3.7673 5.75488 3.74889 5.80985 3.75 5.86618V10.5272C3.75053 12.355 4.23956 14.1494 5.16647 15.7247C6.09338 17.3001 7.42449 18.599 9.022 19.4872L11.879 21.0742C11.9158 21.0949 11.9573 21.1057 11.9995 21.1057C12.0417 21.1057 12.0832 21.0949 12.12 21.0742L14.978 19.4862C16.5755 18.598 17.9066 17.2991 18.8335 15.7237C19.7604 14.1484 20.2495 12.354 20.25 10.5262V5.86618C20.2511 5.80985 20.2327 5.75488 20.1979 5.71058C20.1631 5.66629 20.114 5.63541 20.059 5.62318C19.3119 5.47528 18.5748 5.2809 17.852 5.04118C17.539 4.94118 17.19 4.84118 16.788 4.71918C15.1786 4.24474 13.6126 3.63386 12.107 2.89318C12.0739 2.87616 12.0372 2.86728 12 2.86728C11.9628 2.86728 11.9261 2.87616 11.893 2.89318Z" fill="#006EB7"/>
<path id="Vector_2" d="M11 13.7508C10.9015 13.7511 10.8039 13.7317 10.7129 13.694C10.622 13.6562 10.5394 13.6008 10.47 13.5308L8.47 11.5308C8.33752 11.3886 8.2654 11.2006 8.26882 11.0063C8.27225 10.812 8.35097 10.6266 8.48838 10.4892C8.62579 10.3518 8.81118 10.2731 9.00548 10.2696C9.19978 10.2662 9.38782 10.3383 9.53 10.4708L11 11.9398L14.47 8.47082C14.6122 8.33834 14.8002 8.26622 14.9945 8.26965C15.1888 8.27308 15.3742 8.35179 15.5116 8.4892C15.649 8.62662 15.7277 8.812 15.7312 9.0063C15.7346 9.2006 15.6625 9.38865 15.53 9.53082L11.53 13.5308C11.4606 13.6008 11.378 13.6562 11.2871 13.694C11.1961 13.7317 11.0985 13.7511 11 13.7508Z" fill="#006EB7"/>
</g>
</g>
</svg>
