<svg viewBox="0 0 24 24" fill="none" xmlns="http://www.w3.org/2000/svg">
<g id="fi_4578625" clip-path="url(#clip0_175_2945)">
<g id="Group">
<path id="Vector" d="M11.9944 8.34589L11.3377 12.1753C11.2391 12.7497 11.842 13.1877 12.3579 12.9165L15.7968 11.1085L19.2357 12.9165C19.7515 13.1877 20.3545 12.7497 20.2559 12.1753L19.5992 8.34589L22.3813 5.63399C22.7987 5.22721 22.5684 4.51846 21.9917 4.43469L18.1468 3.87604L16.4273 0.391957C16.1694 -0.130652 15.4242 -0.130652 15.1663 0.391957L13.4468 3.87599L9.60199 4.43464C9.02528 4.51846 8.79499 5.22716 9.21231 5.63394L11.9944 8.34589ZM14.0148 5.21446C14.2439 5.18118 14.4418 5.03732 14.5443 4.8298L15.7968 2.29185L17.0493 4.8298C17.1518 5.03732 17.3497 5.18118 17.5788 5.21446L20.3795 5.62143L18.3528 7.59697C18.1871 7.7585 18.1115 7.99124 18.1506 8.21933L18.629 11.0088L16.1239 9.69182C15.9191 9.58414 15.6744 9.58414 15.4696 9.69182L12.9645 11.0088L13.4429 8.21933C13.482 7.99124 13.4064 7.7585 13.2407 7.59697L11.214 5.62143L14.0148 5.21446Z" fill="#006EB7"/>
<path id="Vector_2" d="M23.6919 16.5713C23.1189 15.6162 21.9136 15.2535 20.9086 15.7336L16.3142 17.9287C16.3934 16.7498 15.5728 15.6762 14.3827 15.4664L11.582 14.9725C11.2246 14.9095 10.8954 14.7455 10.6298 14.4983C9.17761 13.1467 7.11652 12.7435 5.298 13.3668V12.9844C5.298 12.5961 4.98319 12.2812 4.59488 12.2812H0.703125C0.314812 12.2812 0 12.5961 0 12.9844V22.3594C0 22.7477 0.314812 23.0625 0.703125 23.0625H4.59488C4.98319 23.0625 5.298 22.7477 5.298 22.3594V22.0991L10.0658 23.5554C11.0315 23.8504 12.0331 24 13.0429 24C15.0118 24 16.9262 23.4345 18.5793 22.365L23.0132 19.496C23.9908 18.8635 24.291 17.5698 23.6919 16.5713ZM3.89175 21.6563H1.40625V13.6875H3.89175V21.6563ZM22.2493 18.3153L17.8153 21.1844C16.3904 22.1064 14.7401 22.5938 13.0429 22.5938C12.1725 22.5938 11.309 22.4648 10.4766 22.2105L5.298 20.6288V14.8856C6.73336 14.1786 8.48114 14.4196 9.67167 15.5277C10.1364 15.9602 10.7125 16.2472 11.3377 16.3574L14.1385 16.8512C14.6484 16.9411 14.9888 17.4273 14.8989 17.9372C14.8095 18.4439 14.3288 18.7828 13.8225 18.6987C13.8146 18.6974 9.60333 17.9553 9.60333 17.9553C9.22092 17.8879 8.85623 18.1432 8.78878 18.5256C8.72133 18.908 8.9767 19.2727 9.35911 19.3402H9.35916L13.5546 20.0799C14.2804 20.2078 15.0156 20.1075 15.6806 19.7898L21.5149 17.0024C21.8655 16.8349 22.2861 16.9614 22.486 17.2947C22.6951 17.6432 22.5904 18.0946 22.2493 18.3153Z" fill="#006EB7"/>
</g>
</g>
<defs>
<clipPath id="clip0_175_2945">
<rect width="24" height="24" fill="white"/>
</clipPath>
</defs>
</svg>
