<svg viewBox="0 0 24 24" fill="none" xmlns="http://www.w3.org/2000/svg">
<g id="fi_5840562" clip-path="url(#clip0_183_4630)">
<g id="Group">
<path id="Vector" fill-rule="evenodd" clip-rule="evenodd" d="M23.6026 7.98563C24.9611 5.9517 22.563 3.55549 20.5307 4.91368C20.2188 4.69813 19.8537 4.56513 19.4684 4.53163C19.4349 4.14639 19.3019 3.7813 19.0864 3.46943C20.4447 1.43541 18.0469 -0.960707 16.0145 0.397479C15.2949 -0.119354 14.2249 -0.119541 13.5054 0.397479C12.7858 -0.119495 11.7159 -0.119354 10.9963 0.397479C10.2767 -0.119448 9.20699 -0.119448 8.48745 0.397479C7.76785 -0.119401 6.69797 -0.119541 5.97833 0.397432C5.25874 -0.119541 4.18881 -0.119354 3.46922 0.397432C1.43533 -0.961176 -0.960642 1.4371 0.397357 3.46943C-0.119476 4.18898 -0.119429 5.25886 0.397357 5.97845C-0.119476 6.698 -0.119429 7.76793 0.397357 8.48748C-0.119476 9.20702 -0.119429 10.2769 0.397357 10.9965C-0.119476 11.716 -0.119476 12.7859 0.397357 13.5055C-0.119476 14.225 -0.119476 15.2949 0.397357 16.0145C-0.96111 18.0484 1.43693 20.4446 3.46926 19.0864C3.78118 19.302 4.14627 19.435 4.5316 19.4685C4.56505 19.8537 4.69805 20.2188 4.91356 20.5307C3.55523 22.5647 5.95308 24.9608 7.98551 23.6026C8.70506 24.1195 9.77503 24.1197 10.4946 23.6026C11.2142 24.1196 12.2841 24.1195 13.0037 23.6026C13.7232 24.1196 14.793 24.1196 15.5125 23.6026C16.2321 24.1195 17.302 24.1197 18.0216 23.6027C18.7412 24.1197 19.8112 24.1195 20.5308 23.6027C22.5647 24.9613 24.9607 22.5631 23.6027 20.5307C24.1195 19.8112 24.1195 18.7413 23.6027 18.0217C24.1195 17.3022 24.1195 16.2322 23.6027 15.5127C24.1195 14.7931 24.1195 13.7233 23.6027 13.0037C24.1195 12.2842 24.1195 11.2142 23.6027 10.4947C24.1195 9.77506 24.1194 8.70513 23.6026 7.98563ZM5.39324 17.7118C5.08873 18.1879 4.35878 18.1876 4.0544 17.7118C3.78891 17.297 3.14952 17.2971 2.88413 17.7118C2.7343 17.9371 2.48413 18.0716 2.21494 18.0716C1.42381 18.0686 1.11381 17.0382 1.77199 16.5996C2.18664 16.334 2.1866 15.6947 1.77194 15.4293C1.2961 15.1249 1.29615 14.3948 1.77199 14.0906C2.18664 13.825 2.18655 13.1857 1.77199 12.9203C1.29605 12.616 1.29619 11.8859 1.77194 11.5816C2.18669 11.3161 2.18655 10.6768 1.77199 10.4113C1.29605 10.1069 1.29615 9.37685 1.77199 9.07257C2.18664 8.80703 2.18655 8.16773 1.77199 7.90229C1.2961 7.59796 1.29615 6.86787 1.77194 6.56359C2.18669 6.29806 2.18655 5.65876 1.77199 5.39327C1.29605 5.08894 1.29619 4.35881 1.77199 4.05452C2.18664 3.78899 2.1866 3.14964 1.77194 2.8842C1.54669 2.73443 1.41224 2.48421 1.41224 2.21488C1.41533 1.42384 2.44548 1.1137 2.88413 1.77202C3.14962 2.18677 3.78901 2.18667 4.0544 1.77202C4.35887 1.29608 5.08877 1.29599 5.39324 1.77202C5.65873 2.18677 6.29812 2.18667 6.56352 1.77202C6.86808 1.29585 7.59793 1.29618 7.90236 1.77206C8.16789 2.18667 8.80723 2.18667 9.07263 1.77202C9.37715 1.29599 10.1066 1.29608 10.411 1.77202C10.6765 2.18677 11.3159 2.18667 11.5813 1.77202C11.8858 1.29608 12.6157 1.29594 12.9202 1.77206C13.1857 2.18667 13.825 2.18667 14.0904 1.77202C14.395 1.29585 15.1249 1.29622 15.4292 1.77202C15.6947 2.18677 16.3341 2.18667 16.5995 1.77202C17.0384 1.1137 18.0683 1.42384 18.0714 2.21488C18.0714 2.48421 17.9369 2.73443 17.7117 2.88415C17.297 3.14941 17.2971 3.78917 17.7117 4.05448C18.1875 4.35881 18.1874 5.08899 17.7117 5.39322C17.297 5.6589 17.2971 6.29796 17.7117 6.56355C18.1875 6.86769 18.1874 7.5981 17.7117 7.90224C17.297 8.16778 17.2971 8.80708 17.7117 9.07252C18.1875 9.37685 18.1874 10.1069 17.7117 10.4112C17.297 10.6769 17.2971 11.316 17.7117 11.5815C18.1874 11.8857 18.1875 12.6161 17.7117 12.9202C17.297 13.1858 17.2971 13.8251 17.7117 14.0905C18.1875 14.3949 18.1874 15.1249 17.7117 15.4292C17.2971 15.6946 17.2971 16.3341 17.7117 16.5995C17.9369 16.7493 18.0714 16.9995 18.0714 17.2689C18.0683 18.06 17.0382 18.3701 16.5995 17.7118C16.334 17.297 15.6946 17.2971 15.4292 17.7118C15.1248 18.1877 14.3949 18.1878 14.0904 17.7118C13.9602 17.5158 13.7405 17.3981 13.5053 17.3982C13.2701 17.3982 13.0504 17.5158 12.9202 17.7117C12.6156 18.1879 11.8857 18.1876 11.5813 17.7118C11.3158 17.297 10.6764 17.2971 10.411 17.7118C10.1065 18.1878 9.37705 18.1877 9.07263 17.7118C8.94239 17.5158 8.72272 17.3981 8.48749 17.3982C8.25227 17.3982 8.03264 17.5158 7.90236 17.7117C7.59784 18.1877 6.86799 18.1878 6.56352 17.7118C6.29807 17.297 5.65864 17.2971 5.39324 17.7118ZM22.2281 8.57077C22.7039 8.8751 22.7039 9.60519 22.228 9.90947C21.8134 10.175 21.8135 10.8143 22.228 11.0797C22.704 11.3841 22.7038 12.1142 22.2281 12.4184C21.8133 12.6839 21.8135 13.3233 22.228 13.5888C22.704 13.8931 22.7039 14.6232 22.228 14.9275C21.8134 15.193 21.8135 15.8323 22.228 16.0977C22.7039 16.4021 22.7039 17.1322 22.2281 17.4364C21.8133 17.702 21.8135 18.3413 22.228 18.6068C22.704 18.9111 22.7038 19.6412 22.228 19.9455C21.8134 20.211 21.8134 20.8504 22.2281 21.1158C22.4533 21.2656 22.5878 21.5158 22.5878 21.7852C22.5847 22.5762 21.5545 22.8863 21.1159 22.228C20.8504 21.8133 20.211 21.8134 19.9456 22.228C19.6412 22.704 18.9113 22.704 18.6068 22.228C18.3413 21.8133 17.7019 21.8134 17.4365 22.228C17.1319 22.7042 16.4021 22.7039 16.0977 22.228C15.8321 21.8134 15.1928 21.8134 14.9274 22.228C14.6229 22.704 13.8934 22.704 13.589 22.228C13.3235 21.8133 12.6841 21.8134 12.4187 22.228C12.1142 22.704 11.3843 22.7041 11.0799 22.228C10.8143 21.8134 10.175 21.8134 9.90958 22.228C9.60507 22.7042 8.87517 22.7038 8.57079 22.228C8.3053 21.8133 7.66591 21.8134 7.40051 22.228C6.96164 22.8863 5.93176 22.5762 5.92863 21.7852C5.92863 21.5158 6.06308 21.2656 6.28828 21.1159C6.70299 20.8506 6.70289 20.2109 6.28833 19.9456C6.01455 19.7666 5.87653 19.4262 5.9461 19.108C5.95688 19.1009 5.9676 19.0936 5.97829 19.0863C6.69793 19.6034 7.76799 19.6034 8.48768 19.0864C9.20723 19.6034 10.277 19.6033 10.9965 19.0864C11.7161 19.6032 12.786 19.6034 13.5056 19.0864C14.2252 19.6034 15.2952 19.6032 16.0147 19.0864C18.0487 20.445 20.4446 18.0469 19.0867 16.0144C19.6034 15.2949 19.6034 14.225 19.0867 13.5054C19.6034 12.7859 19.6034 11.716 19.0867 10.9964C19.6034 10.2769 19.6034 9.20693 19.0867 8.48743C19.6035 7.76779 19.6034 6.69758 19.0864 5.97808C19.0937 5.96744 19.101 5.95672 19.1082 5.94594C19.4264 5.87637 19.7668 6.01448 19.9458 6.28831C20.2113 6.70306 20.8507 6.70297 21.1161 6.28831C21.2659 6.06302 21.5161 5.92847 21.7853 5.92847C22.5764 5.93151 22.8864 6.96185 22.2282 7.4005C21.8134 7.66599 21.8134 8.30533 22.2281 8.57077Z" fill="#006EB7"/>
<path id="Vector_2" fill-rule="evenodd" clip-rule="evenodd" d="M4.22199 3.51953C3.83446 3.51953 3.51926 3.8344 3.51926 4.22226C3.55426 5.15333 4.8901 5.15305 4.92472 4.22226C4.92472 3.8344 4.6099 3.51953 4.22199 3.51953Z" fill="#006EB7"/>
<path id="Vector_3" fill-rule="evenodd" clip-rule="evenodd" d="M15.2618 4.92436C15.6493 4.92436 15.9645 4.60949 15.9645 4.22163C15.9295 3.29057 14.5937 3.29085 14.5591 4.22163C14.5591 4.60949 14.8739 4.92436 15.2618 4.92436Z" fill="#006EB7"/>
<path id="Vector_4" fill-rule="evenodd" clip-rule="evenodd" d="M9.74192 4.92438C10.1298 4.92438 10.4446 4.60951 10.4446 4.22165C10.4099 3.29058 9.07381 3.29082 9.03919 4.22165C9.03919 4.60951 9.35401 4.92438 9.74192 4.92438Z" fill="#006EB7"/>
<path id="Vector_5" fill-rule="evenodd" clip-rule="evenodd" d="M4.22199 9.03906C3.83446 9.03906 3.51926 9.35393 3.51926 9.74179C3.55431 10.6729 4.89005 10.6726 4.92472 9.74179C4.92472 9.35393 4.6099 9.03906 4.22199 9.03906Z" fill="#006EB7"/>
<path id="Vector_6" fill-rule="evenodd" clip-rule="evenodd" d="M15.2618 10.4439C15.6493 10.4439 15.9645 10.129 15.9645 9.74116C15.9295 8.8101 14.5937 8.81038 14.5591 9.74116C14.5591 10.129 14.8739 10.4439 15.2618 10.4439Z" fill="#006EB7"/>
<path id="Vector_7" fill-rule="evenodd" clip-rule="evenodd" d="M9.74192 10.4439C10.1298 10.4439 10.4446 10.129 10.4446 9.74118C10.4099 8.81011 9.07381 8.81035 9.03919 9.74118C9.03919 10.129 9.35401 10.4439 9.74192 10.4439Z" fill="#006EB7"/>
<path id="Vector_8" fill-rule="evenodd" clip-rule="evenodd" d="M4.22199 14.5586C3.83446 14.5586 3.51926 14.8735 3.51926 15.2613C3.55431 16.1924 4.89005 16.1921 4.92472 15.2613C4.92472 14.8735 4.6099 14.5586 4.22199 14.5586Z" fill="#006EB7"/>
<path id="Vector_9" fill-rule="evenodd" clip-rule="evenodd" d="M15.2618 15.9634C15.6493 15.9634 15.9645 15.6485 15.9645 15.2607C15.9295 14.3296 14.5937 14.3299 14.5591 15.2607C14.5591 15.6485 14.8739 15.9634 15.2618 15.9634Z" fill="#006EB7"/>
<path id="Vector_10" fill-rule="evenodd" clip-rule="evenodd" d="M9.74192 15.9635C10.1298 15.9635 10.4446 15.6485 10.4446 15.2607C10.4099 14.3296 9.07381 14.3299 9.03919 15.2607C9.03919 15.6485 9.35401 15.9635 9.74192 15.9635Z" fill="#006EB7"/>
<path id="Vector_11" fill-rule="evenodd" clip-rule="evenodd" d="M6.98212 7.68608C7.36966 7.68608 7.68485 7.37121 7.68485 6.98335C7.64986 6.05228 6.31402 6.05256 6.2794 6.98335C6.2794 7.37116 6.59422 7.68608 6.98212 7.68608Z" fill="#006EB7"/>
<path id="Vector_12" fill-rule="evenodd" clip-rule="evenodd" d="M12.5017 7.6861C12.8896 7.6861 13.2044 7.37123 13.2044 6.98337C13.1696 6.0523 11.8338 6.05254 11.799 6.98337C11.799 7.37118 12.1141 7.6861 12.5017 7.6861Z" fill="#006EB7"/>
<path id="Vector_13" fill-rule="evenodd" clip-rule="evenodd" d="M6.98212 13.2056C7.36966 13.2056 7.68485 12.8907 7.68485 12.5029C7.64986 11.5718 6.31406 11.5721 6.2794 12.5029C6.2794 12.8908 6.59422 13.2056 6.98212 13.2056Z" fill="#006EB7"/>
<path id="Vector_14" fill-rule="evenodd" clip-rule="evenodd" d="M12.5017 13.2056C12.8896 13.2056 13.2044 12.8907 13.2044 12.5029C13.1696 11.5719 11.8338 11.572 11.799 12.5029C11.799 12.8908 12.1141 13.2056 12.5017 13.2056Z" fill="#006EB7"/>
</g>
</g>
<defs>
<clipPath id="clip0_183_4630">
<rect width="24" height="24" fill="white"/>
</clipPath>
</defs>
</svg>
