<svg viewBox="0 0 24 24" fill="none" xmlns="http://www.w3.org/2000/svg">
<g id="fi_2175882" clip-path="url(#clip0_203_11106)">
<path id="Vector" d="M22.3594 2.48438H12.409C11.8152 1.02886 10.3853 0 8.71875 0H3.98438C1.78739 0 0 1.78739 0 3.98438V20.0156C0 22.2126 1.78739 24 3.98438 24H22.3594C23.264 24 24 23.264 24 22.3594V4.125C24 3.22036 23.264 2.48438 22.3594 2.48438ZM3.98438 1.40625H8.71875C10.1403 1.40625 11.2969 2.5628 11.2969 3.98438V16.2275C11.0096 16.1016 10.6926 16.0312 10.3594 16.0312H3.98438C3.00178 16.0312 2.10173 16.3895 1.40625 16.9814V3.98438C1.40625 2.5628 2.5628 1.40625 3.98438 1.40625ZM22.5938 22.3594C22.5938 22.4886 22.4886 22.5938 22.3594 22.5938H3.98438C2.5628 22.5938 1.40625 21.4372 1.40625 20.0156C1.40625 18.594 2.5628 17.4375 3.98438 17.4375H10.3594C10.8763 17.4375 11.2969 17.8581 11.2969 18.375C11.2969 18.8919 10.8763 19.3125 10.3594 19.3125H4.64062C4.25231 19.3125 3.9375 19.6273 3.9375 20.0156C3.9375 20.4039 4.25231 20.7188 4.64062 20.7188H10.3594C11.6517 20.7188 12.7031 19.6673 12.7031 18.375V3.98438C12.7031 3.95292 12.7015 3.92189 12.7007 3.89062H22.3594C22.4886 3.89062 22.5938 3.99577 22.5938 4.125V22.3594Z" fill="#006EB7"/>
</g>
<defs>
<clipPath id="clip0_203_11106">
<rect width="24" height="24" fill="white"/>
</clipPath>
</defs>
</svg>
