<svg viewBox="0 0 36 36" fill="none" xmlns="http://www.w3.org/2000/svg">
<g id="fi_681443">
<g id="Group">
<g id="Group_2">
<path id="Vector" d="M30.7266 18.8545H27.2026C26.723 18.8545 26.2587 18.92 25.8168 19.0405C24.945 17.3269 23.1653 16.1494 21.1145 16.1494H14.8855C12.8347 16.1494 11.055 17.3269 10.1832 19.0405C9.74131 18.92 9.27696 18.8545 8.79736 18.8545H5.27344C2.36566 18.8545 0 21.2201 0 24.1279V29.7612C0 31.5059 1.4194 32.9253 3.16406 32.9253H32.8359C34.5806 32.9253 36 31.5059 36 29.7612V24.1279C36 21.2201 33.6343 18.8545 30.7266 18.8545ZM9.61207 21.423V30.816H3.16406C2.58251 30.816 2.10938 30.3428 2.10938 29.7613V24.128C2.10938 22.3833 3.52877 20.9639 5.27344 20.9639H8.79736C9.08367 20.9639 9.36091 21.0028 9.62487 21.0745C9.61727 21.1898 9.61207 21.3059 9.61207 21.423ZM24.2786 30.816H11.7214V21.4229C11.7214 19.6783 13.1408 18.2589 14.8855 18.2589H21.1145C22.8592 18.2589 24.2786 19.6783 24.2786 21.4229V30.816ZM33.8906 29.7613C33.8906 30.3428 33.4175 30.816 32.8359 30.816H26.3879V21.4229C26.3879 21.3057 26.3827 21.1897 26.3751 21.0744C26.6391 21.0028 26.9163 20.9639 27.2026 20.9639H30.7266C32.4712 20.9639 33.8906 22.3833 33.8906 24.1279V29.7613Z" fill="#006EB7"/>
</g>
</g>
<g id="Group_3">
<g id="Group_4">
<path id="Vector_2" d="M7.03547 8.89478C4.45156 8.89478 2.34943 10.9969 2.34943 13.5808C2.34936 16.1647 4.45156 18.2669 7.03547 18.2669C9.61932 18.2669 11.7215 16.1647 11.7215 13.5808C11.7215 10.9969 9.61939 8.89478 7.03547 8.89478ZM7.0354 16.1575C5.6146 16.1575 4.45873 15.0016 4.45873 13.5808C4.45873 12.16 5.6146 11.0042 7.0354 11.0042C8.45621 11.0042 9.61207 12.16 9.61207 13.5808C9.61207 15.0016 8.45621 16.1575 7.0354 16.1575Z" fill="#006EB7"/>
</g>
</g>
<g id="Group_5">
<g id="Group_6">
<path id="Vector_3" d="M18 3.07471C14.5479 3.07471 11.7395 5.88313 11.7395 9.33519C11.7395 12.7873 14.5479 15.5957 18 15.5957C21.452 15.5957 24.2605 12.7873 24.2605 9.33519C24.2605 5.8832 21.452 3.07471 18 3.07471ZM18 13.4863C15.711 13.4863 13.8489 11.6241 13.8489 9.33519C13.8489 7.04631 15.711 5.18408 18 5.18408C20.2889 5.18408 22.1511 7.04624 22.1511 9.33519C22.1511 11.6241 20.2889 13.4863 18 13.4863Z" fill="#006EB7"/>
</g>
</g>
<g id="Group_7">
<g id="Group_8">
<path id="Vector_4" d="M28.9646 8.89478C26.3807 8.89478 24.2785 10.9969 24.2785 13.5808C24.2786 16.1647 26.3807 18.2669 28.9646 18.2669C31.5485 18.2669 33.6506 16.1647 33.6506 13.5808C33.6506 10.9969 31.5485 8.89478 28.9646 8.89478ZM28.9646 16.1575C27.5438 16.1575 26.3879 15.0016 26.3879 13.5808C26.3879 12.16 27.5438 11.0042 28.9646 11.0042C30.3854 11.0042 31.5412 12.16 31.5412 13.5808C31.5412 15.0016 30.3854 16.1575 28.9646 16.1575Z" fill="#006EB7"/>
</g>
</g>
</g>
</svg>
