<svg viewBox="0 0 37 36" fill="none" xmlns="http://www.w3.org/2000/svg">
<g id="fi_2881167" clip-path="url(#clip0_43_1998)">
<g id="Group">
<path id="Vector" d="M26.8727 4.36877C27.4551 4.36877 27.9273 3.89657 27.9273 3.31409C27.9273 2.7316 27.4551 2.2594 26.8727 2.2594C26.2902 2.2594 25.818 2.7316 25.818 3.31409C25.818 3.89657 26.2902 4.36877 26.8727 4.36877Z" fill="#006EB7"/>
<path id="Vector_2" d="M31.3914 6.62817C31.9739 6.62817 32.4461 6.15597 32.4461 5.57349C32.4461 4.991 31.9739 4.5188 31.3914 4.5188C30.8089 4.5188 30.3367 4.991 30.3367 5.57349C30.3367 6.15597 30.8089 6.62817 31.3914 6.62817Z" fill="#006EB7"/>
<path id="Vector_3" d="M31.3914 2.10938C31.9739 2.10938 32.4461 1.63718 32.4461 1.05469C32.4461 0.4722 31.9739 0 31.3914 0C30.8089 0 30.3367 0.4722 30.3367 1.05469C30.3367 1.63718 30.8089 2.10938 31.3914 2.10938Z" fill="#006EB7"/>
<path id="Vector_4" d="M22.3539 0H13.3153C8.99008 0 5.48359 3.4991 5.48359 7.83169V7.83281C5.48359 8.41528 5.95581 8.8875 6.53828 8.8875H10.0024V11.9223C8.25166 13.7495 6.87304 15.8607 5.90216 18.2045C4.87483 20.6847 4.35388 23.3035 4.35388 25.9881V32.686C4.35388 33.5712 4.69862 34.4033 5.32405 35.0286C5.94976 35.655 6.78219 36 7.66799 36H18.9649C19.8507 36 20.6831 35.655 21.3082 35.0292C21.9342 34.4033 22.2789 33.5712 22.2789 32.686V26.5127C22.2789 23.6557 21.1663 20.9695 19.1461 18.9488C19.141 18.9437 19.136 18.9387 19.1308 18.9339C17.5182 17.3133 16.6305 15.163 16.6305 12.8763V8.11962L21.6081 13.0973C22.02 13.5091 22.6878 13.5091 23.0997 13.0973C23.5116 12.6854 23.5116 12.0176 23.0997 11.6057L18.122 6.62808H22.3539C22.9364 6.62808 23.4086 6.15586 23.4086 5.57339V1.05469C23.4086 0.472219 22.9364 0 22.3539 0ZM17.654 20.4403C17.659 20.4453 17.6641 20.4502 17.6692 20.4552C19.2818 22.0757 20.1696 24.2261 20.1696 26.5127V32.6859C20.1696 33.0076 20.0443 33.31 19.8162 33.5379C19.5891 33.7653 19.2868 33.8906 18.9649 33.8906H7.66799C7.3461 33.8906 7.04376 33.7653 6.81608 33.5374C6.58862 33.31 6.46333 33.0076 6.46333 32.6859V25.988C6.46333 23.5818 6.9302 21.2347 7.85101 19.0117C8.71663 16.9219 9.94366 15.038 11.5011 13.4062H14.5339C14.6627 16.0642 15.7591 18.545 17.654 20.4403ZM12.1117 11.2969V8.8875H14.5211V11.2969H12.1117ZM16.7805 5.13654L15.1389 6.77813H7.68908C8.37758 3.0581 11.7739 2.10938 13.3153 2.10938H16.7805V5.13654ZM21.2992 4.51877H18.8898V2.10938H21.2992V4.51877Z" fill="#006EB7"/>
<path id="Vector_5" d="M13.3164 19.2047C12.9317 19.2047 12.5774 19.4142 12.3921 19.7515C12.3625 19.8055 11.6582 21.0906 10.9434 22.67C9.93009 24.9094 9.43755 26.5228 9.43755 27.6023C9.43755 29.7412 11.1776 31.4813 13.3165 31.4813C15.4553 31.4813 17.1954 29.7412 17.1954 27.6023C17.1954 26.5228 16.7029 24.9094 15.6895 22.67C14.9748 21.0906 14.2705 19.8055 14.2409 19.7515C14.0555 19.4143 13.7012 19.2047 13.3164 19.2047ZM13.3164 29.3719C12.3407 29.3719 11.5469 28.5781 11.5469 27.6023C11.5469 26.573 12.4329 24.4031 13.3164 22.57C14.1998 24.403 15.086 26.573 15.086 27.6023C15.086 28.5781 14.2921 29.3719 13.3164 29.3719Z" fill="#006EB7"/>
</g>
</g>
<defs>
<clipPath id="clip0_43_1998">
<rect width="36" height="36" fill="white" transform="translate(0.399994)"/>
</clipPath>
</defs>
</svg>
