<svg viewBox="0 0 36 36" fill="none" xmlns="http://www.w3.org/2000/svg">
<g id="fi_9356809">
<g id="Layer 2">
<path id="Vector" d="M25.35 34.1251C24.9586 34.1262 24.5741 34.0225 24.2365 33.8246C23.8988 33.6268 23.6203 33.3421 23.43 33.0001L19.695 26.5351C19.5458 26.2765 19.5055 25.9692 19.5828 25.6809C19.6602 25.3926 19.8489 25.1468 20.1075 24.9976C20.3661 24.8484 20.6733 24.808 20.9617 24.8854C21.25 24.9628 21.4958 25.1515 21.645 25.4101L25.38 31.8751L26.31 29.5951C26.5028 29.1566 26.8313 28.7916 27.2472 28.5539C27.6631 28.3163 28.1443 28.2185 28.62 28.2751L31.08 28.5751L26.58 20.8201C26.5061 20.692 26.4582 20.5507 26.439 20.4041C26.4197 20.2576 26.4295 20.1087 26.4678 19.9659C26.5061 19.8231 26.5722 19.6893 26.6622 19.5721C26.7522 19.4548 26.8645 19.3565 26.9925 19.2826C27.1205 19.2087 27.2619 19.1608 27.4084 19.1415C27.555 19.1223 27.7039 19.1321 27.8467 19.1704C27.9895 19.2087 28.1233 19.2748 28.2405 19.3648C28.3578 19.4548 28.4561 19.567 28.53 19.6951L33.03 27.4651C33.2342 27.8257 33.3348 28.2356 33.3208 28.6497C33.3068 29.0639 33.1787 29.4661 32.9506 29.812C32.7226 30.158 32.4034 30.4342 32.0284 30.6104C31.6533 30.7865 31.2369 30.8556 30.825 30.8101L28.365 30.4951L27.42 32.7601C27.2577 33.146 26.9902 33.4786 26.6481 33.7199C26.306 33.9612 25.903 34.1016 25.485 34.1251H25.35Z" fill="#006EB7"/>
<path id="Vector_2" d="M11.25 34.1251H11.13C10.712 34.1016 10.309 33.9612 9.96687 33.7199C9.62476 33.4786 9.35731 33.146 9.195 32.7601L8.22 30.4801L5.79 30.7951C5.37922 30.8491 4.96154 30.7863 4.58482 30.6138C4.2081 30.4414 3.88758 30.1663 3.66 29.8201C3.44376 29.4681 3.32929 29.0632 3.32929 28.6501C3.32929 28.237 3.44376 27.832 3.66 27.4801L8.16 19.6951C8.30919 19.4365 8.55498 19.2478 8.84332 19.1704C9.13166 19.0931 9.43892 19.1334 9.6975 19.2826C9.95609 19.4318 10.1448 19.6776 10.2222 19.9659C10.2995 20.2542 10.2592 20.5615 10.11 20.8201L5.61 28.5901L8.055 28.2751C8.53125 28.2136 9.01458 28.3092 9.43152 28.5474C9.84846 28.7857 10.1762 29.1535 10.365 29.5951L11.34 31.8751L15 25.4101C15.1492 25.1515 15.395 24.9628 15.6833 24.8854C15.9717 24.8081 16.2789 24.8484 16.5375 24.9976C16.7961 25.1468 16.9848 25.3926 17.0622 25.6809C17.1395 25.9692 17.0992 26.2765 16.95 26.5351L13.17 33.0001C12.9797 33.3421 12.7012 33.6268 12.3635 33.8246C12.0259 34.0225 11.6414 34.1262 11.25 34.1251Z" fill="#006EB7"/>
<path id="Vector_3" d="M18.3 28.3651C17.3005 28.3659 16.3411 27.9724 15.63 27.2701L14.31 25.9501C14.1711 25.8083 14.0054 25.6956 13.8226 25.6183C13.6398 25.5411 13.4435 25.5009 13.245 25.5001H11.745C10.7477 25.4961 9.79233 25.0982 9.08711 24.393C8.38189 23.6877 7.98395 22.7324 7.98 21.7351V20.2351C7.98351 20.0243 7.94258 19.8153 7.85988 19.6214C7.77717 19.4276 7.65455 19.2533 7.5 19.1101L6.165 17.7901C5.46265 17.079 5.06917 16.1195 5.07 15.1201C5.06633 14.6282 5.15985 14.1405 5.34518 13.6848C5.53052 13.2292 5.80403 12.8147 6.15 12.4651L7.5 11.1301C7.63902 10.9899 7.74901 10.8237 7.82366 10.6409C7.8983 10.4582 7.93614 10.2625 7.935 10.0651V8.56506C7.92906 8.0674 8.02145 7.57347 8.20688 7.11161C8.39231 6.64976 8.66712 6.22906 9.01554 5.87367C9.36396 5.51828 9.77913 5.2352 10.2372 5.04067C10.6953 4.84613 11.1873 4.74397 11.685 4.74006H13.185C13.3824 4.7412 13.5781 4.70336 13.7609 4.62872C13.9436 4.55407 14.1098 4.44408 14.25 4.30506L15.63 3.00006C16.3512 2.30529 17.3136 1.91711 18.315 1.91711C19.3164 1.91711 20.2788 2.30529 21 3.00006L22.32 4.32006C22.4602 4.45908 22.6264 4.56907 22.8091 4.64372C22.9919 4.71836 23.1876 4.7562 23.385 4.75506H24.885C25.8849 4.75903 26.8425 5.15903 27.5482 5.86748C28.2538 6.57594 28.65 7.53513 28.65 8.53506V10.0351C28.6489 10.2325 28.6867 10.4282 28.7613 10.6109C28.836 10.7937 28.946 10.9599 29.085 11.1001L30.42 12.4351C31.119 13.145 31.5107 14.1013 31.5107 15.0976C31.5107 16.0938 31.119 17.0501 30.42 17.7601L29.085 19.0801C28.9442 19.222 28.8331 19.3907 28.7584 19.5761C28.6837 19.7616 28.6469 19.9601 28.65 20.1601V21.6601C28.6579 22.1577 28.5675 22.652 28.3839 23.1147C28.2003 23.5773 27.9272 23.9991 27.5801 24.3559C27.2331 24.7127 26.819 24.9974 26.3617 25.1938C25.9043 25.3901 25.4127 25.4942 24.915 25.5001H23.415C23.2165 25.5009 23.0202 25.5411 22.8374 25.6183C22.6546 25.6956 22.4889 25.8083 22.35 25.9501L21.03 27.2701C20.6707 27.6251 20.2442 27.9048 19.7754 28.0928C19.3066 28.2808 18.805 28.3734 18.3 28.3651ZM11.685 6.99006C11.2872 6.99006 10.9056 7.14809 10.6243 7.4294C10.343 7.7107 10.185 8.09223 10.185 8.49006V9.99006C10.1867 10.483 10.0908 10.9713 9.90289 11.427C9.71495 11.8827 9.43868 12.2967 9.09 12.6451L7.77 13.9801C7.62827 14.119 7.51551 14.2846 7.43827 14.4675C7.36102 14.6503 7.32082 14.8466 7.32 15.0451C7.31883 15.246 7.35806 15.4452 7.43536 15.6307C7.51266 15.8163 7.62646 15.9844 7.77 16.1251L9.09 17.4451C9.44048 17.7952 9.71779 18.2116 9.90578 18.67C10.0938 19.1284 10.1887 19.6196 10.185 20.1151V21.6151C10.185 22.0129 10.343 22.3944 10.6243 22.6757C10.9056 22.957 11.2872 23.1151 11.685 23.1151H13.185C13.6793 23.1128 14.1691 23.2099 14.6252 23.4006C15.0813 23.5913 15.4944 23.8716 15.84 24.2251L17.16 25.5451C17.4522 25.8204 17.8385 25.9737 18.24 25.9737C18.6415 25.9737 19.0278 25.8204 19.32 25.5451L20.64 24.2251C20.9856 23.8716 21.3988 23.5913 21.8548 23.4006C22.3109 23.2099 22.8007 23.1128 23.295 23.1151H24.795C25.1928 23.1151 25.5744 22.957 25.8557 22.6757C26.137 22.3944 26.295 22.0129 26.295 21.6151V20.1151C26.2913 19.6196 26.3862 19.1284 26.5742 18.67C26.7622 18.2116 27.0395 17.7952 27.39 17.4451L28.725 16.1251C28.8679 15.9854 28.9814 15.8185 29.0589 15.6344C29.1364 15.4502 29.1763 15.2524 29.1763 15.0526C29.1763 14.8527 29.1364 14.6549 29.0589 14.4708C28.9814 14.2866 28.8679 14.1198 28.725 13.9801L27.39 12.6451C27.0413 12.2967 26.765 11.8827 26.5771 11.427C26.3892 10.9713 26.2933 10.483 26.295 9.99006V8.49006C26.295 8.09223 26.137 7.7107 25.8557 7.4294C25.5744 7.14809 25.1928 6.99006 24.795 6.99006H23.295C22.8021 6.99176 22.3137 6.89588 21.858 6.70795C21.4024 6.52001 20.9884 6.24374 20.64 5.89506L19.32 4.57506C19.1801 4.42989 19.0123 4.31441 18.8268 4.23554C18.6412 4.15667 18.4416 4.11602 18.24 4.11602C18.0384 4.11602 17.8388 4.15667 17.6532 4.23554C17.4677 4.31441 17.2999 4.42989 17.16 4.57506L15.84 5.89506C15.4916 6.24374 15.0776 6.52001 14.622 6.70795C14.1663 6.89588 13.6779 6.99176 13.185 6.99006H11.685Z" fill="#006EB7"/>
<path id="Vector_4" d="M17.31 18.6301C17.0078 18.6274 16.718 18.5093 16.5 18.3001L14.01 15.7951C13.7993 15.5841 13.681 15.2982 13.681 15.0001C13.681 14.7019 13.7993 14.416 14.01 14.2051C14.2254 13.997 14.5131 13.8807 14.8125 13.8807C15.1119 13.8807 15.3997 13.997 15.615 14.2051L17.31 15.9151L21.51 11.7001C21.7254 11.492 22.0131 11.3757 22.3125 11.3757C22.6119 11.3757 22.8997 11.492 23.115 11.7001C23.3257 11.911 23.444 12.1969 23.444 12.4951C23.444 12.7932 23.3257 13.0791 23.115 13.2901L18.105 18.3001C17.8924 18.5084 17.6076 18.6266 17.31 18.6301Z" fill="#006EB7"/>
</g>
</g>
</svg>
