<svg viewBox="0 0 36 36" fill="none" xmlns="http://www.w3.org/2000/svg">
<g id="fi_10748861">
<g id="Layer_25">
<path id="Vector" d="M17.8841 10.1058C17.325 10.1058 16.8716 10.5592 16.8716 11.1183V18C16.8716 18.3138 17.0179 18.6097 17.2665 18.8021L21.7957 22.2952C21.9802 22.437 22.1974 22.5067 22.4134 22.5067C22.7171 22.5067 23.0164 22.3706 23.2166 22.1118C23.5586 21.6686 23.4754 21.033 23.0332 20.691L18.8977 17.5016V11.1195C18.8966 10.5603 18.4432 10.1058 17.8841 10.1058Z" fill="#006EB7"/>
<path id="Vector_2" d="M34.1539 14.3167C33.7151 13.9668 33.0795 14.0433 32.7319 14.481L32.2065 15.1436C30.8644 8.4656 24.9086 3.3761 17.8864 3.3761C9.82348 3.3761 3.26248 9.9371 3.26248 18C3.26248 26.0628 9.82348 32.6238 17.8864 32.6238C23.2999 32.6238 28.242 29.6572 30.7856 24.8816C31.0489 24.3888 30.8621 23.7757 30.3682 23.5125C29.8755 23.2492 29.2612 23.4382 28.9991 23.9298C26.8076 28.0428 22.5506 30.5977 17.8864 30.5977C10.9395 30.5977 5.28748 24.9468 5.28748 18C5.28748 11.0531 10.9395 5.40222 17.8864 5.40222C23.8815 5.40222 28.9789 9.70647 30.1961 15.3832L29.5267 14.8533C29.088 14.5023 28.4524 14.58 28.1047 15.0176C27.7571 15.4552 27.8314 16.092 28.269 16.4396L30.8509 18.4848C31.0365 18.6333 31.2581 18.7042 31.4786 18.7042C31.7779 18.7042 32.0726 18.5726 32.2729 18.3195L34.3181 15.7376C34.6657 15.3 34.5915 14.6632 34.1539 14.3167Z" fill="#006EB7"/>
</g>
</g>
</svg>
