<svg viewBox="0 0 36 36" fill="none" xmlns="http://www.w3.org/2000/svg">
<g id="fi_2205817" clip-path="url(#clip0_142_2549)">
<path id="Vector" d="M34.9453 8.57812C32.0375 8.57812 29.6719 10.9438 29.6719 13.8516C29.6719 15.6692 29.3709 17.0755 28.7533 18.3614C26.048 16.8346 22.5451 17.4255 20.4868 19.8624C19.3118 21.2536 18.5255 22.3431 18 23.1826C17.4744 22.3431 16.6882 21.2536 15.5131 19.8624C13.4549 17.4255 9.95203 16.8345 7.24669 18.3614C6.62913 17.0755 6.32812 15.6692 6.32812 13.8516C6.32812 10.9438 3.96246 8.57812 1.05469 8.57812H0V15.0875C0 19.9397 1.97965 24.6353 5.47151 28.1271L8.50781 31.1634V36H27.4922V31.1634L30.5285 28.127C34.0142 24.6415 36 19.9485 36 15.0875V8.57812H34.9453ZM6.96305 26.6356C3.87851 23.551 2.10938 19.3418 2.10938 15.0875V10.8682C3.3371 11.3035 4.21875 12.4765 4.21875 13.8516C4.21875 18.9303 6.38515 21.4767 9.69026 24.7818L10.9261 26.0177L12.4177 24.5261L11.1818 23.2902C10.0285 22.137 9.08923 21.1417 8.35425 20.1583C10.1808 19.1711 12.5189 19.5863 13.9017 21.2235C16.3915 24.1712 16.8718 25.4959 16.9454 25.7432V33.8906H10.6173V30.2897L6.96305 26.6356ZM33.8906 15.0875C33.8906 19.3418 32.1215 23.551 29.037 26.6356L25.3828 30.2897V33.8906H19.0547C19.0547 32.8851 19.0547 26.7822 19.0547 25.7432C19.1283 25.4959 19.6085 24.1712 22.0983 21.2235C23.4811 19.5862 25.8193 19.1711 27.6458 20.1583C26.9108 21.1417 25.9715 22.137 24.8183 23.2902L23.5824 24.5261L25.0739 26.0177L26.3147 24.7769C29.617 21.4741 31.7812 18.9278 31.7812 13.8516C31.7812 12.4765 32.6629 11.3035 33.8906 10.8682V15.0875Z" fill="#006EB7"/>
<path id="Vector_2" d="M18.0018 17.5547C24.2674 12.172 27.4922 10.0512 27.4922 6.07268C27.4922 2.66745 24.9619 0 21.7316 0C20.3388 0 19.0844 0.485789 18.0471 1.41673C17.0332 0.495633 15.7831 0 14.4302 0C11.2005 0 8.67059 2.66745 8.67059 6.07268C8.67052 10.1403 11.9132 12.3292 18.0018 17.5547ZM14.4302 2.10938C15.5306 2.10938 16.4591 2.61232 17.1901 3.60436L18.0246 4.73681L18.8778 3.61835C19.6415 2.61703 20.6016 2.10938 21.7316 2.10938C23.779 2.10938 25.3828 3.85024 25.3828 6.07268C25.3828 8.86366 22.8473 10.6185 17.9989 14.7705C13.0802 10.5627 10.7799 8.84545 10.7799 6.07268C10.7799 3.85024 12.3833 2.10938 14.4302 2.10938Z" fill="#006EB7"/>
</g>
<defs>
<clipPath id="clip0_142_2549">
<rect width="36" height="36" fill="white"/>
</clipPath>
</defs>
</svg>
