<svg viewBox="0 0 36 36" fill="none" xmlns="http://www.w3.org/2000/svg">
<g id="fi_2760060" clip-path="url(#clip0_144_2080)">
<g id="Group">
<path id="Vector" d="M30.7266 31.7812C31.3091 31.7812 31.7812 31.3091 31.7812 30.7266C31.7812 30.1441 31.3091 29.6719 30.7266 29.6719C30.1441 29.6719 29.6719 30.1441 29.6719 30.7266C29.6719 31.3091 30.1441 31.7812 30.7266 31.7812Z" fill="#006EB7"/>
<path id="Vector_2" d="M1.05469 36H13.7109C14.2934 36 14.7656 35.5278 14.7656 34.9453C14.7656 32.0375 12.4 29.6719 9.49219 29.6719H8.4375V3.69141C8.4375 2.81911 9.14723 2.10938 10.0195 2.10938C10.8918 2.10938 11.6016 2.81911 11.6016 3.69141V21.7617C11.6016 23.7971 13.2576 25.4531 15.293 25.4531H17.0156V32.8359C17.0156 34.5806 18.435 36 20.1797 36H30.7266C33.6343 36 36 33.6343 36 30.7266C36 28.1799 34.1854 26.0492 31.7812 25.5592V14.0657C31.7812 12.0867 29.9929 10.5711 28.0959 10.9399C22.0229 12.1205 17.5259 17.2488 17.0569 23.3438H15.293C14.4207 23.3438 13.7109 22.634 13.7109 21.7617V3.69141C13.7109 1.656 12.0549 0 10.0195 0C7.98413 0 6.32812 1.656 6.32812 3.69141V29.6719H5.27344C2.36566 29.6719 0 32.0375 0 34.9453C0 35.5278 0.472219 36 1.05469 36ZM33.8906 30.7266C33.8906 32.4712 32.4712 33.8906 30.7266 33.8906C28.9819 33.8906 27.5625 32.4712 27.5625 30.7266C27.5625 28.9819 28.9819 27.5625 30.7266 27.5625C32.4712 27.5625 33.8906 28.9819 33.8906 30.7266ZM28.4984 13.0105C29.1104 12.8917 29.6719 13.4335 29.6719 14.0657V25.5592C27.2677 26.0492 25.4531 28.1798 25.4531 30.7266C25.4531 31.9128 25.8471 33.0086 26.5107 33.8906H20.1797C19.5981 33.8906 19.125 33.4175 19.125 32.8359V31.3432C24.1019 29.9308 27.5625 25.3797 27.5625 20.1797V13.2337C27.8691 13.1471 28.1811 13.0721 28.4984 13.0105ZM19.125 24.3984C19.125 19.9585 21.6548 16.0024 25.4531 14.061V20.1797C25.4531 24.2331 22.8586 27.811 19.125 29.1315V24.3984ZM5.27344 31.7812H9.49219C10.8673 31.7812 12.0402 32.6629 12.4755 33.8906H2.29008C2.72538 32.6629 3.89834 31.7812 5.27344 31.7812Z" fill="#006EB7"/>
</g>
</g>
<defs>
<clipPath id="clip0_144_2080">
<rect width="36" height="36" fill="white"/>
</clipPath>
</defs>
</svg>
