<svg viewBox="0 0 36 36" fill="none" xmlns="http://www.w3.org/2000/svg">
<g id="fi_4578625" clip-path="url(#clip0_144_11400)">
<g id="Group">
<path id="Vector" d="M17.9916 12.5188L17.0065 18.2629C16.8587 19.1245 17.763 19.7815 18.5368 19.3747L23.6952 16.6628L28.8536 19.3747C29.6273 19.7815 30.5317 19.1245 30.3839 18.2629L29.3987 12.5188L33.572 8.45098C34.198 7.84081 33.8525 6.77769 32.9875 6.65204L27.2202 5.81405L24.6409 0.587936C24.2541 -0.195979 23.1363 -0.195979 22.7494 0.587936L20.1702 5.81398L14.4029 6.65197C13.5379 6.77769 13.1924 7.84074 13.8184 8.45091L17.9916 12.5188ZM21.0222 7.82169C21.3658 7.77176 21.6627 7.55598 21.8163 7.2447L23.6952 3.43777L25.574 7.2447C25.7276 7.55598 26.0246 7.77176 26.3681 7.82169L30.5693 8.43214L27.5292 11.3955C27.2807 11.6378 27.1673 11.9869 27.2259 12.329L27.9435 16.5132L24.1859 14.5377C23.8786 14.3762 23.5116 14.3762 23.2043 14.5377L19.4467 16.5132L20.1643 12.329C20.223 11.9869 20.1095 11.6378 19.861 11.3955L16.8209 8.43214L21.0222 7.82169Z" fill="#006EB7"/>
<path id="Vector_2" d="M35.5379 24.8569C34.6783 23.4243 32.8705 22.8803 31.363 23.6005L24.4713 26.8931C24.5901 25.1246 23.3592 23.5143 21.5741 23.1995L17.373 22.4587C16.837 22.3642 16.3431 22.1183 15.9447 21.7474C13.7664 19.7201 10.6748 19.1152 7.947 20.0502V19.4766C7.947 18.8941 7.47478 18.4219 6.89231 18.4219H1.05469C0.472219 18.4219 0 18.8941 0 19.4766V33.5391C0 34.1215 0.472219 34.5938 1.05469 34.5938H6.89231C7.47478 34.5938 7.947 34.1215 7.947 33.5391V33.1487L15.0986 35.3332C16.5472 35.7756 18.0497 35.9999 19.5643 35.9999C22.5176 35.9999 25.3894 35.1518 27.8689 33.5474L34.5198 29.244C35.9862 28.2952 36.4366 26.3547 35.5379 24.8569ZM5.83763 32.4844H2.10938V20.5313H5.83763V32.4844ZM33.3739 27.473L26.723 31.7765C24.5855 33.1596 22.1101 33.8906 19.5643 33.8906C18.2587 33.8906 16.9635 33.6973 15.7148 33.3158L7.947 30.9431V22.3284C10.1 21.2678 12.7217 21.6295 14.5075 23.2915C15.2046 23.9404 16.0687 24.3707 17.0066 24.5361L21.2078 25.2769C21.9726 25.4117 22.4832 26.141 22.3483 26.9058C22.2143 27.6658 21.4933 28.1741 20.7337 28.0481C20.7219 28.0461 14.405 26.9329 14.405 26.9329C13.8314 26.8318 13.2844 27.2148 13.1832 27.7884C13.082 28.362 13.4651 28.9091 14.0387 29.0102H14.0387L20.3318 30.1198C21.4206 30.3117 22.5234 30.1613 23.5209 29.6847L32.2723 25.5036C32.7983 25.2523 33.4292 25.4422 33.729 25.942C34.0427 26.4649 33.8856 27.1419 33.3739 27.473Z" fill="#006EB7"/>
</g>
</g>
<defs>
<clipPath id="clip0_144_11400">
<rect width="36" height="36" fill="white"/>
</clipPath>
</defs>
</svg>
