<svg viewBox="0 0 36 36" fill="none" xmlns="http://www.w3.org/2000/svg">
<g id="fi_591965">
<g id="Group">
<g id="Group_2">
<path id="Vector" d="M23.625 1.125C17.6265 1.125 11.25 3.096 11.25 6.75V11.25C11.25 11.871 11.754 12.375 12.375 12.375C12.996 12.375 13.5 11.871 13.5 11.25V10.0778C15.8872 11.583 19.8292 12.375 23.625 12.375C27.4208 12.375 31.3628 11.583 33.75 10.0778V11.25C33.75 12.3502 30.9825 14.1052 25.7805 14.5395C25.164 14.589 24.7027 15.1357 24.7545 15.7545C24.8017 16.3417 25.2945 16.785 25.8727 16.785C25.9065 16.785 25.9357 16.7828 25.9695 16.7805C28.899 16.5353 31.8172 15.777 33.75 14.5463V15.75C33.75 16.7107 31.7115 18.0923 27.9293 18.7605C27.3195 18.8685 26.91 19.4535 27.018 20.0632C27.1148 20.6077 27.5895 20.9925 28.1227 20.9925C28.188 20.9925 28.2555 20.988 28.3207 20.9745C30.609 20.5717 32.4405 19.9125 33.75 19.0755V20.25C33.75 21.2107 31.7115 22.5923 27.9293 23.2605C27.3195 23.3685 26.91 23.9535 27.018 24.5632C27.1148 25.1077 27.5895 25.4925 28.1227 25.4925C28.188 25.4925 28.2555 25.488 28.3207 25.4745C30.609 25.0717 32.4405 24.4102 33.75 23.5755V24.75C33.75 25.7107 31.7115 27.0923 27.9293 27.7605C27.3195 27.8685 26.91 28.4535 27.018 29.0632C27.1148 29.6077 27.5895 29.9925 28.1227 29.9925C28.188 29.9925 28.2555 29.988 28.3207 29.9745C30.609 29.5717 32.4405 28.9102 33.75 28.0755V29.25C33.75 30.3502 30.9825 32.1052 25.7805 32.5395C25.164 32.589 24.7027 33.1357 24.7545 33.7545C24.8017 34.3417 25.2945 34.785 25.8727 34.785C25.9065 34.785 25.9357 34.7828 25.9695 34.7805C30.9622 34.362 36 32.4922 36 29.25V6.75C36 3.096 29.6235 1.125 23.625 1.125ZM23.625 10.125C17.4443 10.125 13.5 8.12475 13.5 6.75C13.5 5.37525 17.4443 3.375 23.625 3.375C29.8057 3.375 33.75 5.37525 33.75 6.75C33.75 8.12475 29.8057 10.125 23.625 10.125Z" fill="#006EB7"/>
</g>
</g>
<g id="Group_3">
<g id="Group_4">
<path id="Vector_2" d="M12.375 14.625C6.3765 14.625 0 16.596 0 20.25V29.25C0 32.904 6.3765 34.875 12.375 34.875C18.3735 34.875 24.75 32.904 24.75 29.25V20.25C24.75 16.596 18.3735 14.625 12.375 14.625ZM22.5 29.25C22.5 30.6248 18.5557 32.625 12.375 32.625C6.19425 32.625 2.25 30.6248 2.25 29.25V28.0778C4.63725 29.583 8.57925 30.375 12.375 30.375C16.1708 30.375 20.1128 29.583 22.5 28.0778V29.25ZM22.5 24.75C22.5 26.1248 18.5557 28.125 12.375 28.125C6.19425 28.125 2.25 26.1248 2.25 24.75V23.5778C4.63725 25.083 8.57925 25.875 12.375 25.875C16.1708 25.875 20.1128 25.083 22.5 23.5778V24.75ZM12.375 23.625C6.19425 23.625 2.25 21.6248 2.25 20.25C2.25 18.8752 6.19425 16.875 12.375 16.875C18.5557 16.875 22.5 18.8752 22.5 20.25C22.5 21.6248 18.5557 23.625 12.375 23.625Z" fill="#006EB7"/>
</g>
</g>
</g>
</svg>
