<svg viewBox="0 0 36 36" fill="none" xmlns="http://www.w3.org/2000/svg">
<g id="fi_7472622" clip-path="url(#clip0_144_11066)">
<g id="Group">
<path id="Vector" d="M13.5348 17.9985C13.5348 17.7466 13.4347 17.5049 13.2566 17.3268C13.0784 17.1486 12.8368 17.0485 12.5848 17.0485H4.4743L7.58878 14.4532C7.68461 14.3733 7.76376 14.2753 7.82171 14.1648C7.87966 14.0543 7.91528 13.9335 7.92654 13.8093C7.93779 13.685 7.92447 13.5597 7.88731 13.4406C7.85016 13.3215 7.78991 13.2109 7.71 13.1151C7.6301 13.0192 7.5321 12.9401 7.4216 12.8821C7.31111 12.8242 7.19028 12.7886 7.06602 12.7773C6.94176 12.7661 6.8165 12.7794 6.69739 12.8165C6.57828 12.8537 6.46766 12.9139 6.37183 12.9938L1.24183 17.2688C1.13489 17.358 1.04884 17.4696 0.989798 17.5957C0.930753 17.7218 0.900146 17.8593 0.900146 17.9985C0.900146 18.1378 0.930753 18.2753 0.989798 18.4014C1.04884 18.5275 1.13489 18.6391 1.24183 18.7282L6.37183 23.0032C6.46766 23.0832 6.57829 23.1434 6.6974 23.1806C6.81651 23.2177 6.94178 23.2311 7.06605 23.2198C7.19032 23.2086 7.31116 23.173 7.42166 23.115C7.53217 23.0571 7.63018 22.9779 7.7101 22.8821C7.79002 22.7863 7.85028 22.6757 7.88744 22.5565C7.92461 22.4374 7.93795 22.3122 7.9267 22.1879C7.91545 22.0636 7.87984 21.9428 7.82189 21.8323C7.76394 21.7218 7.6848 21.6238 7.58897 21.5438L4.4743 18.9485H12.5848C12.8368 18.9485 13.0784 18.8485 13.2566 18.6703C13.4347 18.4921 13.5348 18.2505 13.5348 17.9985Z" fill="#006EB7"/>
<path id="Vector_2" d="M14.455 7.58504L17.0498 4.47103V12.582C17.0498 12.834 17.1499 13.0756 17.3281 13.2538C17.5062 13.4319 17.7479 13.532 17.9998 13.532C18.2518 13.532 18.4934 13.4319 18.6716 13.2538C18.8497 13.0756 18.9498 12.834 18.9498 12.582V4.47103L21.5447 7.58504C21.7059 7.77869 21.9375 7.90036 22.1884 7.92327C22.4394 7.94618 22.6892 7.86846 22.8828 7.70721C23.0765 7.54596 23.1981 7.31438 23.2211 7.06343C23.244 6.81247 23.1662 6.56269 23.005 6.36904L18.73 1.23904C18.6378 1.13675 18.5252 1.05496 18.3994 0.998975C18.2737 0.942992 18.1375 0.914063 17.9998 0.914062C17.8621 0.914062 17.726 0.942992 17.6002 0.998975C17.4744 1.05496 17.3618 1.13675 17.2697 1.23904L12.9947 6.36904C12.8334 6.56269 12.7557 6.81247 12.7786 7.06343C12.8015 7.31438 12.9232 7.54596 13.1168 7.70721C13.3105 7.86846 13.5603 7.94618 13.8112 7.92327C14.0622 7.90036 14.2937 7.77869 14.455 7.58504Z" fill="#006EB7"/>
<path id="Vector_3" d="M34.7584 17.2689L29.6284 12.9939C29.4349 12.8325 29.1852 12.7546 28.9342 12.7773C28.6832 12.8 28.4516 12.9215 28.2901 13.115C28.1287 13.3086 28.0508 13.5583 28.0735 13.8093C28.0963 14.0602 28.2177 14.2919 28.4113 14.4533L31.5254 17.0486H23.4148C23.1629 17.0486 22.9213 17.1487 22.7431 17.3269C22.5649 17.505 22.4648 17.7466 22.4648 17.9986C22.4648 18.2506 22.5649 18.4922 22.7431 18.6704C22.9213 18.8485 23.1629 18.9486 23.4148 18.9486H31.5252L28.4109 21.5439C28.2174 21.7053 28.0959 21.9369 28.0731 22.1879C28.0504 22.4388 28.1283 22.6886 28.2897 22.8821C28.4511 23.0756 28.6827 23.1971 28.9337 23.2198C29.1846 23.2426 29.4343 23.1647 29.6278 23.0033L34.7578 18.7283C34.8648 18.6391 34.9508 18.5276 35.0099 18.4015C35.0689 18.2754 35.0995 18.1378 35.0995 17.9986C35.0995 17.8594 35.0689 17.7218 35.0099 17.5957C34.9508 17.4696 34.8654 17.3581 34.7584 17.2689Z" fill="#006EB7"/>
<path id="Vector_4" d="M21.5447 28.4079L18.9498 31.5219V23.4109C18.9498 23.159 18.8497 22.9173 18.6716 22.7392C18.4934 22.561 18.2518 22.4609 17.9998 22.4609C17.7479 22.4609 17.5062 22.561 17.3281 22.7392C17.1499 22.9173 17.0498 23.159 17.0498 23.4109V31.5218L14.455 28.4079C14.3751 28.312 14.2772 28.2328 14.1667 28.1748C14.0563 28.1168 13.9355 28.0811 13.8112 28.0697C13.687 28.0584 13.5617 28.0716 13.4425 28.1087C13.3234 28.1457 13.2127 28.2059 13.1168 28.2858C13.0209 28.3656 12.9417 28.4636 12.8837 28.574C12.8256 28.6845 12.7899 28.8053 12.7786 28.9296C12.7672 29.0538 12.7805 29.1791 12.8176 29.2982C12.8546 29.4174 12.9148 29.5281 12.9947 29.6239L17.2697 34.7539C17.3589 34.8609 17.4705 34.947 17.5967 35.0061C17.7229 35.0652 17.8605 35.0958 17.9998 35.0958C18.1391 35.0958 18.2768 35.0652 18.4029 35.0061C18.5291 34.947 18.6408 34.8609 18.73 34.7539L23.005 29.6239C23.0848 29.5281 23.145 29.4174 23.1821 29.2982C23.2192 29.1791 23.2324 29.0538 23.2211 28.9296C23.2097 28.8053 23.174 28.6845 23.116 28.574C23.0579 28.4636 22.9787 28.3656 22.8828 28.2858C22.7869 28.2059 22.6763 28.1457 22.5571 28.1087C22.438 28.0716 22.3127 28.0584 22.1884 28.0697C22.0642 28.0811 21.9434 28.1168 21.8329 28.1748C21.7224 28.2328 21.6245 28.312 21.5447 28.4079Z" fill="#006EB7"/>
</g>
</g>
<defs>
<clipPath id="clip0_144_11066">
<rect width="34.2" height="34.2" fill="white" transform="translate(0.899902 0.898438)"/>
</clipPath>
</defs>
</svg>
