<svg viewBox="0 0 36 36" fill="none" xmlns="http://www.w3.org/2000/svg">
<g id="fi_10439823" clip-path="url(#clip0_144_2935)">
<path id="Vector" d="M17.999 35.4386C8.38476 35.4386 0.562988 27.6159 0.562988 18.0006C0.562988 8.38519 8.38476 0.5625 17.999 0.5625C27.6144 0.5625 35.437 8.38519 35.437 18.0006C35.437 27.6159 27.6144 35.4386 17.999 35.4386ZM17.999 2.67188C9.54787 2.67188 2.67236 9.5483 2.67236 18.0006C2.67236 26.4528 9.54787 33.3292 17.999 33.3292C26.4513 33.3292 33.3276 26.4527 33.3276 18.0006C33.3276 9.54844 26.4516 2.67188 17.999 2.67188ZM24.6998 28.3013C24.5383 28.3013 24.3789 28.2642 24.234 28.1929L17.9992 25.1236L11.7661 28.1928C11.5938 28.2776 11.4016 28.3138 11.2102 28.2975C11.0189 28.2811 10.8356 28.2128 10.6802 28.0999C10.5249 27.987 10.4032 27.8338 10.3285 27.6569C10.2538 27.48 10.2288 27.286 10.2563 27.0959L11.2484 20.2174L6.40448 15.2381C6.27057 15.1004 6.17679 14.9288 6.13324 14.7418C6.08969 14.5548 6.09804 14.3594 6.15737 14.1767C6.2167 13.9941 6.32478 13.8311 6.46993 13.7054C6.61508 13.5797 6.79181 13.496 6.98104 13.4633L13.826 12.282L17.066 6.13427C17.1555 5.96438 17.2897 5.82216 17.4541 5.72295C17.6186 5.62374 17.807 5.57131 17.999 5.57131C18.1911 5.57131 18.3794 5.62374 18.5439 5.72295C18.7083 5.82216 18.8425 5.96438 18.9321 6.13427L22.1719 12.282L29.0188 13.4633C29.208 13.496 29.3848 13.5797 29.5299 13.7054C29.6751 13.8311 29.7832 13.9941 29.8425 14.1767C29.9018 14.3594 29.9102 14.5548 29.8666 14.7418C29.8231 14.9288 29.7293 15.1004 29.5954 15.2381L24.7513 20.2174L25.7436 27.096C25.7652 27.2457 25.7544 27.3982 25.7118 27.5434C25.6693 27.6885 25.596 27.8228 25.497 27.9371C25.398 28.0514 25.2756 28.1431 25.138 28.206C25.0004 28.2688 24.851 28.3013 24.6997 28.3013L24.6998 28.3013ZM17.999 22.8933C18.1605 22.8933 18.3199 22.9304 18.4648 23.0017L23.3703 25.4166L22.5898 20.0047C22.5667 19.8448 22.5807 19.6818 22.6306 19.5282C22.6805 19.3746 22.765 19.2345 22.8776 19.1187L26.6882 15.2018L21.3018 14.2725C21.1426 14.245 20.9919 14.1813 20.8612 14.0864C20.7305 13.9914 20.6234 13.8677 20.5481 13.7248L17.999 8.88806L15.4501 13.7247C15.3748 13.8676 15.2677 13.9913 15.137 14.0863C15.0063 14.1812 14.8555 14.2449 14.6964 14.2723L9.31183 15.2016L13.1228 19.1187C13.2354 19.2344 13.3199 19.3745 13.3698 19.5281C13.4197 19.6817 13.4337 19.8448 13.4106 20.0046L12.6302 25.4161L17.5335 23.0017C17.6783 22.9304 17.8376 22.8933 17.999 22.8933Z" fill="#006EB7"/>
</g>
<defs>
<clipPath id="clip0_144_2935">
<rect width="36" height="36" fill="white"/>
</clipPath>
</defs>
</svg>
