<svg viewBox="0 0 36 36" fill="none" xmlns="http://www.w3.org/2000/svg">
<g id="fi_1518194" clip-path="url(#clip0_144_6660)">
<g id="Group">
<g id="Group_2">
<path id="Vector" d="M18 36C13.192 36 8.67185 34.1276 5.27203 30.728C1.87235 27.3281 0 22.808 0 18C0 13.192 1.87235 8.67185 5.27203 5.27203C8.67185 1.87235 13.192 0 18 0C22.808 0 27.3281 1.87235 30.728 5.27203C34.1276 8.67185 36 13.192 36 18C36 22.808 34.1276 27.3281 30.728 30.728C27.3281 34.1276 22.808 36 18 36ZM18 2.10938C13.7554 2.10938 9.765 3.76228 6.76364 6.76364C3.76228 9.765 2.10938 13.7554 2.10938 18C2.10938 22.2446 3.76228 26.235 6.76364 29.2364C9.765 32.2377 13.7554 33.8906 18 33.8906C22.2446 33.8906 26.235 32.2377 29.2364 29.2364C32.2377 26.235 33.8906 22.2446 33.8906 18C33.8906 13.7554 32.2377 9.765 29.2364 6.76364C26.235 3.76228 22.2446 2.10938 18 2.10938Z" fill="#006EB7"/>
</g>
<g id="Group_3">
<path id="Vector_2" d="M17.9693 28.5393L9.45488 19.9637C7.34402 17.8528 7.34402 14.4137 9.45755 12.3002C11.571 10.1866 15.0102 10.1865 17.1237 12.3002L18 13.1763L18.8762 12.3001C20.9898 10.1864 24.429 10.1865 26.5424 12.3001C28.656 14.4137 28.656 17.8527 26.5424 19.9663L17.9693 28.5393ZM13.2906 12.8217C12.4061 12.8217 11.5745 13.1661 10.949 13.7916C10.3235 14.4171 9.97912 15.2487 9.97912 16.1332C9.97912 17.0177 10.3235 17.8493 10.949 18.4748L17.9746 25.551L25.0508 18.4748C26.3419 17.1836 26.3419 15.0828 25.0508 13.7917C24.4253 13.1662 23.5937 12.8218 22.7093 12.8218C21.8247 12.8218 20.9932 13.1662 20.3677 13.7917L18 16.1594L15.6322 13.7916C15.0067 13.1662 14.1752 12.8217 13.2906 12.8217Z" fill="#006EB7"/>
</g>
</g>
</g>
<defs>
<clipPath id="clip0_144_6660">
<rect width="36" height="36" fill="white"/>
</clipPath>
</defs>
</svg>
