<svg viewBox="0 0 36 36" fill="none" xmlns="http://www.w3.org/2000/svg">
<g id="fi_2881380" clip-path="url(#clip0_183_5748)">
<g id="Group">
<path id="Vector" d="M21.7228 23.7762C21.7228 23.7762 21.0132 23.5393 20.0275 23.2111C16.6274 22.0778 13.9207 19.3711 12.7874 15.9713C12.4591 14.9853 12.2223 14.2756 12.2223 14.2756C12.0787 13.8451 11.6757 13.5547 11.2218 13.5547C10.7679 13.5547 10.365 13.8451 10.2213 14.2757C10.2213 14.2757 9.98466 14.9853 9.65644 15.971C8.52307 19.3711 5.81646 22.0778 2.4165 23.2111C1.43058 23.5393 0.720914 23.7762 0.720914 23.7762C0.290391 23.9197 0 24.3228 0 24.7766C0 25.2305 0.290461 25.6335 0.720984 25.7771C0.720984 25.7771 1.43065 26.0138 2.41622 26.342C5.81639 27.4754 8.52307 30.182 9.65637 33.5819C9.98466 34.5678 10.2213 35.2775 10.2213 35.2775C10.365 35.708 10.7679 35.9984 11.2218 35.9984H11.2219C11.6757 35.9984 12.0788 35.708 12.2224 35.2775C12.2224 35.2775 12.4592 34.5679 12.7874 33.5821C13.9208 30.182 16.6274 27.4754 20.0273 26.3421C21.0132 26.0138 21.7228 25.7771 21.7228 25.7771C22.1534 25.6335 22.4438 25.2306 22.4438 24.7766C22.4438 24.3227 22.1534 23.9197 21.7228 23.7762ZM14.0613 27.616C12.867 28.8103 11.8991 30.2337 11.2219 31.7822C10.5447 30.2338 9.57684 28.8104 8.38238 27.616C7.18805 26.4216 5.76464 25.4537 4.21615 24.7766C5.76457 24.0994 7.18791 23.1315 8.38238 21.9371C9.5767 20.7427 10.5446 19.3194 11.2218 17.7708C11.899 19.3193 12.8668 20.7426 14.0613 21.9371C15.2556 23.1314 16.679 24.0993 18.2275 24.7765C16.6791 25.4537 15.2558 26.4215 14.0613 27.616Z" fill="#006EB7"/>
<path id="Vector_2" d="M27.0378 17.9244C27.5119 17.9244 27.913 17.6114 28.0458 17.1806C29.1805 13.8001 31.8713 11.1083 35.2512 9.972C35.6846 9.84101 36 9.43847 36 8.96231C36 8.48812 35.6869 8.08706 35.2562 7.95424C31.8757 6.81954 29.1838 4.12875 28.0475 0.748828C27.9165 0.315422 27.514 0 27.0378 0C26.5636 0 26.1625 0.313102 26.0297 0.743766C24.895 4.12432 22.2042 6.81623 18.8243 7.95248C18.3909 8.08348 18.0755 8.48602 18.0755 8.96217C18.0755 9.43636 18.3886 9.83742 18.8193 9.97024C22.1996 11.1049 24.8915 13.7955 26.0278 17.175C26.1587 17.6088 26.5613 17.9244 27.0378 17.9244ZM21.7396 8.96224C22.8466 8.34891 23.8691 7.58173 24.7632 6.68763C25.6573 5.79354 26.4245 4.77105 27.0378 3.66398C27.6512 4.77105 28.4183 5.79354 29.3124 6.68763C30.2065 7.58173 31.229 8.34891 32.3361 8.96224C31.229 9.57558 30.2065 10.3428 29.3124 11.2369C28.4183 12.1309 27.6512 13.1534 27.0378 14.2605C26.4245 13.1534 25.6573 12.1309 24.7632 11.2369C23.8691 10.3428 22.8466 9.57558 21.7396 8.96224Z" fill="#006EB7"/>
<path id="Vector_3" d="M0.742852 6.58097C2.53252 7.18523 3.9581 8.60977 4.56377 10.3987C4.69512 10.8314 5.09738 11.1464 5.57311 11.1464C6.04695 11.1464 6.4478 10.8337 6.5809 10.4035C7.18516 8.61391 8.60962 7.1884 10.3985 6.58259C10.8314 6.45124 11.1463 6.04898 11.1463 5.57325C11.1463 5.09941 10.8337 4.69856 10.4034 4.56546C8.61384 3.9612 7.18833 2.53673 6.58252 0.747844C6.45117 0.31493 6.04891 0 5.57318 0C5.09934 0 4.69849 0.312609 4.56546 0.742852C3.96127 2.53237 2.53673 3.95796 0.747773 4.56377C0.31493 4.69512 0 5.09738 0 5.57318C0 6.04702 0.31268 6.44787 0.742852 6.58097ZM5.57318 3.40369C6.1541 4.25482 6.89147 4.99226 7.7426 5.57311C6.89147 6.15403 6.15403 6.8914 5.57318 7.74253C4.99233 6.8914 4.25489 6.15396 3.40376 5.57311C4.25489 4.99226 4.99233 4.25489 5.57318 3.40369Z" fill="#006EB7"/>
<path id="Vector_4" d="M35.2572 29.4209C33.4675 28.8166 32.0419 27.3921 31.4362 25.6032C31.3049 25.1704 30.9026 24.8555 30.4269 24.8555C29.9531 24.8555 29.5522 25.1681 29.4191 25.5983C28.8148 27.3879 27.3904 28.8134 25.6015 29.4192C25.1686 29.5506 24.8537 29.9528 24.8537 30.4286C24.8537 30.9024 25.1663 31.3033 25.5966 31.4364C27.3862 32.0406 28.8117 33.4651 29.4175 35.254C29.5488 35.6868 29.9511 36.0018 30.4268 36.0018C30.9007 36.0018 31.3015 35.6891 31.4345 35.2589C32.0387 33.4694 33.4633 32.0438 35.2522 31.438C35.6851 31.3066 36 30.9044 36 30.4286C36 29.9548 35.6873 29.554 35.2572 29.4209ZM30.4268 32.5981C29.8459 31.747 29.1085 31.0096 28.2574 30.4287C29.1085 29.8478 29.846 29.1104 30.4268 28.2593C31.0077 29.1104 31.7451 29.8479 32.5962 30.4287C31.7451 31.0096 31.0077 31.7469 30.4268 32.5981Z" fill="#006EB7"/>
</g>
</g>
<defs>
<clipPath id="clip0_183_5748">
<rect width="36" height="36" fill="white"/>
</clipPath>
</defs>
</svg>
