<svg viewBox="0 0 36 36" fill="none" xmlns="http://www.w3.org/2000/svg">
<g id="fi_5412062" clip-path="url(#clip0_183_5773)">
<g id="Group">
<path id="Vector" d="M34.9453 11.25C35.5278 11.25 36 10.7778 36 10.1953C36 9.61282 35.5278 9.14062 34.9453 9.14062C34.3628 9.14062 33.8906 9.61282 33.8906 10.1953C33.8906 10.7778 34.3628 11.25 34.9453 11.25Z" fill="#006EB7"/>
<path id="Vector_2" d="M34.9453 36C35.5278 36 36 35.5278 36 34.9453C36 34.3628 35.5278 33.8906 34.9453 33.8906C34.3628 33.8906 33.8906 34.3628 33.8906 34.9453C33.8906 35.5278 34.3628 36 34.9453 36Z" fill="#006EB7"/>
<path id="Vector_3" d="M1.05476 22.5C1.63724 22.5 2.10944 22.0278 2.10944 21.4453C2.10944 20.8628 1.63724 20.3906 1.05476 20.3906C0.472268 20.3906 6.86646e-05 20.8628 6.86646e-05 21.4453C6.86646e-05 22.0278 0.472268 22.5 1.05476 22.5Z" fill="#006EB7"/>
<path id="Vector_4" d="M0.799125 6.29661H0.799265C2.5023 6.72235 3.82474 8.04486 4.25062 9.74797C4.5169 10.8131 6.03066 10.8131 6.29693 9.74797C6.72281 8.04486 8.04525 6.72235 9.74829 6.29661H9.74843C10.8136 6.03033 10.8136 4.51658 9.74843 4.25023H9.74829C8.04525 3.82449 6.72281 2.50198 6.29693 0.798873C6.03066 -0.266291 4.5169 -0.266291 4.25062 0.798873C3.82474 2.50198 2.5023 3.82449 0.799265 4.25023H0.799125C-0.266039 4.51651 -0.266039 6.03026 0.799125 6.29661ZM5.27374 3.56553C5.7371 4.23174 6.31542 4.81006 6.98156 5.27342C6.31542 5.73678 5.7371 6.3151 5.27374 6.98131C4.81038 6.3151 4.23206 5.73678 3.56592 5.27342C4.23206 4.81006 4.81038 4.23174 5.27374 3.56553Z" fill="#006EB7"/>
<path id="Vector_5" d="M9.74827 29.7034H9.74813C8.04509 29.2776 6.72265 27.9551 6.29677 26.252C6.0305 25.1868 4.51674 25.1868 4.25046 26.252C3.82458 27.9551 2.50214 29.2776 0.799105 29.7034H0.798965C-0.2662 29.9696 -0.2662 31.4834 0.798965 31.7497H0.799105C2.50214 32.1755 3.82458 33.498 4.25046 35.2011C4.51674 36.2663 6.0305 36.2663 6.29677 35.2011C6.72265 33.498 8.04509 32.1755 9.74813 31.7497H9.74827C10.8134 31.4835 10.8134 29.9697 9.74827 29.7034ZM5.27358 32.4344C4.81022 31.7683 4.2319 31.19 3.56576 30.7265C4.2319 30.2632 4.81022 29.6849 5.27358 29.0187C5.73694 29.6848 6.31526 30.2631 6.9814 30.7265C6.31533 31.19 5.73694 31.7683 5.27358 32.4344Z" fill="#006EB7"/>
<path id="Vector_6" d="M35.2011 23.3752H35.201C33.5375 22.9594 32.2376 21.6877 31.7813 20.0417V7.43857C31.7813 5.69714 30.3979 4.24041 28.6566 4.21896C28.271 4.21418 27.9011 4.27943 27.5579 4.4017C27.47 2.73516 26.0866 1.40625 24.3984 1.40625C23.8967 1.40625 23.4222 1.52416 23.0002 1.73292C22.4769 0.705656 21.4095 0 20.1797 0C18.7227 0 17.4934 0.990141 17.1273 2.33255C16.7661 2.18911 16.3726 2.10938 15.9602 2.10938C14.2128 2.10938 12.7962 3.52596 12.7962 5.27344V16.4485L10.6192 14.2715C9.38546 13.0378 7.37817 13.0378 6.14447 14.2715C4.91084 15.5052 4.91084 17.5125 6.14447 18.7461L11.0457 23.6474C12.1665 24.7681 12.7962 26.2883 12.7962 27.8734V34.9453C12.7962 35.5278 13.2684 36 13.8509 36H27.9134C28.4958 36 28.9681 35.5278 28.9681 34.9453L28.9688 29.7572L29.7387 28.9872C30.0812 29.9362 31.4933 29.8984 31.7496 28.873C32.1755 27.1699 33.4979 25.8474 35.201 25.4216H35.2011C36.2663 25.1554 36.2663 23.6415 35.2011 23.3752ZM26.2519 23.3752H26.2518C25.1866 23.6415 25.1866 25.1553 26.2518 25.4216H26.2519C27.2505 25.6712 28.1178 26.2295 28.7507 26.9917C28.7488 26.9936 27.1683 28.5745 27.1683 28.5745C26.9705 28.7724 26.8594 29.0406 26.8594 29.3203L26.8587 33.8906H14.9056V27.8734C14.9056 25.7135 14.0645 23.683 12.5373 22.1558L7.63608 17.2545C7.21245 16.8309 7.22524 16.1335 7.67461 15.7264C8.09494 15.3455 8.74814 15.3835 9.14928 15.7846L13.1052 19.7405C13.3864 20.0218 13.7522 20.0993 14.0805 20.0243C15.314 19.7503 16.5867 20.0462 17.5724 20.8365C18.568 21.6345 19.1251 22.8589 19.1251 24.1349V25.6342C19.1251 26.2022 19.5615 26.6908 20.1288 26.7175C20.7344 26.746 21.2344 26.2634 21.2344 25.6641V24.1543C21.2344 22.2382 20.3958 20.4022 18.9036 19.2002C17.7548 18.2747 16.3462 17.7959 14.9056 17.8155V5.30325C14.9056 4.73534 15.342 4.24673 15.9093 4.22002C16.5149 4.19147 17.0149 4.67409 17.0149 5.27351V15.1173H17.0156V15.1176C17.0156 15.5725 17.3027 15.9877 17.7376 16.1211C18.4617 16.3432 19.125 15.8077 19.125 15.1173V3.19465C19.125 2.62744 19.56 2.13862 20.1265 2.11064C20.7322 2.08083 21.2344 2.56486 21.2344 3.16406V15.0874C21.2344 15.6553 21.6708 16.144 22.2381 16.1706C22.8438 16.1992 23.3438 15.7165 23.3438 15.1172V4.6009C23.3438 4.03369 23.7788 3.54488 24.3453 3.51689C24.9509 3.48708 25.4531 3.97111 25.4531 4.57031V15.0874C25.4531 15.6553 25.8896 16.144 26.4568 16.1706C27.0625 16.1992 27.5625 15.7165 27.5625 15.1172V7.4134C27.5625 6.84619 27.9975 6.35737 28.564 6.32939C29.1696 6.29958 29.6719 6.78361 29.6719 7.38281V20.041C29.2157 21.6874 27.9157 22.9593 26.2519 23.3752ZM30.7265 26.1063C30.2631 25.4402 29.6848 24.8619 29.0187 24.3984C29.6848 23.9351 30.2631 23.3568 30.7265 22.6905C31.1899 23.3567 31.7682 23.935 32.4343 24.3984C31.7682 24.8618 31.1899 25.4401 30.7265 26.1063Z" fill="#006EB7"/>
</g>
</g>
<defs>
<clipPath id="clip0_183_5773">
<rect width="36" height="36" fill="white"/>
</clipPath>
</defs>
</svg>
