<svg viewBox="0 0 36 36" fill="none" xmlns="http://www.w3.org/2000/svg">
<g id="fi_1203803" clip-path="url(#clip0_183_5787)">
<path id="Vector" d="M29.576 5.26794C29.576 2.36316 27.2129 0 24.3084 0H19.4428C17.7437 3.39807 17.2763 4.31927 13.3088 6.89584C11.8419 7.84863 10.1791 8.92859 8.49326 10.6581C6.59592 12.6043 5.90241 15.4094 6.76456 18.15C7.71296 21.1641 10.5296 23.1784 13.7859 23.1781H13.8472C16.0593 23.1608 17.3156 22.3912 18.3247 21.7727C19.0558 21.3247 19.4985 21.0712 20.094 21.0712C20.6461 21.0712 20.8551 21.269 21.3162 21.7562C21.8757 22.3473 22.6417 23.1567 24.2444 23.1779C24.2666 23.1781 24.2891 23.1784 24.3114 23.1784C26.7632 23.1784 28.9704 21.4016 29.4615 19.0209C29.5488 18.5979 29.5851 18.173 29.5722 17.7536H29.576V5.26794ZM27.398 18.5952C27.1074 20.0028 25.7355 21.0899 24.2721 21.071C23.5599 21.0616 23.3067 20.7938 22.8463 20.3077C22.3099 19.7408 21.575 18.9641 20.094 18.9641C18.8753 18.9641 18.0357 19.4785 17.2238 19.9762C16.3155 20.5326 15.4578 21.0583 13.831 21.071C13.8159 21.071 13.8013 21.0712 13.7865 21.0712C11.4554 21.0712 9.44468 19.6477 8.77479 17.5177C8.16038 15.5643 8.62208 13.5448 10.002 12.1289C11.5241 10.5675 13.015 9.5993 14.4566 8.66299C17.4559 6.71512 19.064 5.46817 20.7452 2.10718H24.3084C26.0511 2.10718 27.4691 3.52496 27.4691 5.26767V13.6947C26.5669 13.0166 25.4644 12.6428 24.3084 12.6428C22.9013 12.6428 21.5785 13.1905 20.5834 14.1855L22.0735 15.6756C22.6703 15.0785 23.4641 14.7497 24.3084 14.7497C26.2502 14.75 27.8273 16.5135 27.398 18.5952Z" fill="#006EB7"/>
<path id="Vector_2" d="M13.3561 25.8164L12.1874 27.5698C12.6057 27.8489 12.8458 28.2974 12.8458 28.8003C12.8458 29.3032 12.6057 29.7517 12.1874 30.0308C11.1874 30.6974 10.5905 31.8127 10.5905 33.0144C10.5905 34.2163 11.1874 35.3317 12.1874 35.9983L13.3561 34.2451C12.9378 33.9661 12.6974 33.5175 12.6974 33.0144C12.6974 32.5115 12.9378 32.063 13.3561 31.7839C14.3561 31.1173 14.9529 30.0019 14.9529 28.8003C14.9529 27.5987 14.3561 26.483 13.3561 25.8164Z" fill="#006EB7"/>
<path id="Vector_3" d="M18.624 25.8164L17.4551 27.5698C17.8737 27.8489 18.1137 28.2974 18.1137 28.8003C18.1137 29.3032 17.8737 29.7517 17.4551 30.0308C16.4553 30.6974 15.8582 31.8127 15.8582 33.0144C15.8582 34.2163 16.4553 35.3317 17.4551 35.9983L18.624 34.2451C18.2054 33.9661 17.9654 33.5175 17.9654 33.0144C17.9654 32.5115 18.2054 32.063 18.624 31.7839C19.6238 31.1173 20.2209 30.0019 20.2209 28.8003C20.2209 27.5987 19.6238 26.483 18.624 25.8164Z" fill="#006EB7"/>
<path id="Vector_4" d="M23.8917 25.8164L22.723 27.5698C23.1413 27.8489 23.3814 28.2974 23.3814 28.8003C23.3814 29.3032 23.1413 29.7517 22.723 30.0308C21.723 30.6974 21.1262 31.8127 21.1262 33.0144C21.1262 34.2163 21.723 35.3317 22.723 35.9983L23.8917 34.2451C23.4734 33.9661 23.2331 33.5175 23.2331 33.0144C23.2331 32.5115 23.4734 32.063 23.8917 31.7839C24.8917 31.1173 25.4886 30.0019 25.4886 28.8003C25.4886 27.5987 24.8917 26.483 23.8917 25.8164Z" fill="#006EB7"/>
</g>
<defs>
<clipPath id="clip0_183_5787">
<rect width="36" height="36" fill="white"/>
</clipPath>
</defs>
</svg>
