<svg width="258" height="42" viewBox="0 0 258 42" fill="none" xmlns="http://www.w3.org/2000/svg">
<g clip-path="url(#clip0_1_4216)">
<path fill-rule="evenodd" clip-rule="evenodd" d="M12.8139 12.2407L11.1736 3.80487L16.7919 6.8346L20.2043 2.97217L23.931 6.77055L29.2979 3.80487L27.4628 12.2407H12.8139Z" fill="#006EB7"/>
<path d="M27.4 13.9062H13.0024V28.4528H27.4V13.9062Z" fill="#006EB7"/>
<path fill-rule="evenodd" clip-rule="evenodd" d="M13.0024 28.4016V13.9062L2.02985 25.7049V39.9761H16.0001L27.4 28.4464L13.0024 28.4016Z" fill="#D9DADA"/>
<path d="M35.1675 28.4398V13.874H48.4339L51.7395 16.7885V21.1954L48.8613 23.7319L52.1669 27.2036V28.4398H47.862L44.148 24.2379H39.3341V28.4398H35.1675ZM39.3278 20.7598H46.4292L47.573 19.7798V18.3258L46.4292 17.3457H39.3278V20.7598Z" fill="#006EB7"/>
<path d="M61.2038 28.4398L57.3264 25.1731V17.1408L61.2038 13.874H71.548L75.4254 17.1408V25.1731L71.548 28.4398H61.2038ZM63.0829 24.8977H69.6752L71.2652 23.5717V18.7485L69.6752 17.4162H63.0829L61.4929 18.7485V23.5717L63.0829 24.8977Z" fill="#006EB7"/>
<path d="M85.7759 28.4398V23.6998L79.083 15.1102V13.8804H83.1427L87.5921 19.8502H88.2645L92.7516 13.8804H96.6102V15.1102L89.9362 23.6998V28.4398H85.7759Z" fill="#006EB7"/>
<path d="M109.795 13.874L117.078 27.21V28.4398H113.019L111.693 25.8585H102.367L101.022 28.4398H97.0627V27.21L104.346 13.874H109.795ZM104.202 22.3227H109.877L107.325 17.3906H106.753L104.202 22.3227Z" fill="#006EB7"/>
<path d="M121.836 28.4398V13.874H125.996V24.7311H135.548V28.4398H121.836Z" fill="#006EB7"/>
<path d="M158.945 28.4398L155.068 25.1731V17.1408L158.945 13.874H170.578V17.4098H160.824L159.234 18.7421V23.5717L160.824 24.9041H170.578V28.4398H158.945Z" fill="#006EB7"/>
<path d="M175.926 28.4398V13.874H180.086V24.7311H189.638V28.4398H175.926Z" fill="#006EB7"/>
<path d="M194.289 28.4398V13.874H209.943V17.3457H198.455V19.5364H207.09V22.6558H198.455V24.9617H210.169V28.4398H194.289Z" fill="#006EB7"/>
<path d="M226.66 13.874L233.943 27.21V28.4398H229.884L228.558 25.8585H219.232L217.88 28.4398H213.921V27.21L221.211 13.874H226.66ZM221.067 22.3227H226.741L224.19 17.3906H223.618L221.067 22.3227Z" fill="#006EB7"/>
<path d="M238.701 28.4398V13.874H244.759L251.269 24.065H251.76V13.874H255.738V28.4398H249.679L243.169 18.2489H242.679V28.4398H238.701Z" fill="#006EB7"/>
</g>
<defs>
<clipPath id="clip0_1_4216">
<rect width="258" height="42" fill="white"/>
</clipPath>
</defs>
</svg>
