<svg width="259" height="26" viewBox="0 0 259 26" fill="none" xmlns="http://www.w3.org/2000/svg">
<g clip-path="url(#clip0_90_3490)">
<path fill-rule="evenodd" clip-rule="evenodd" d="M10.3156 7.44893L9.29401 2.29549L12.7921 4.14478L14.913 1.78467L17.2343 4.10598L20.5773 2.29549L19.4392 7.44893H10.3156Z" fill="#006EB7"/>
<path d="M19.394 8.46411H10.432V17.3485H19.394V8.46411Z" fill="#006EB7"/>
<path fill-rule="evenodd" clip-rule="evenodd" d="M10.432 17.3161V8.46411L3.59741 15.6738V24.39H12.2943L19.4004 17.3485L10.432 17.3161Z" fill="#D9DADA"/>
<path d="M28.5693 17.2062V2.50244H42.2191L45.6203 5.4445V9.89314L42.6588 12.4537L46.06 15.9583V17.1998H41.6307L37.8093 12.958H32.8563V17.1998H28.5693V17.2062ZM32.8498 9.45345H40.1565L41.3333 8.46414V6.99635L40.1565 6.01351H32.8498V9.45345Z" fill="#006EB7"/>
<path d="M55.3581 17.2062L51.3686 13.9086V5.80013L55.3581 2.50244H66.0013L69.9908 5.80013V13.9021L66.0013 17.1998H55.3581V17.2062ZM57.2915 13.6305H64.0744L65.7103 12.2856V7.41664L64.0744 6.0717H57.2915L55.6556 7.41664V12.2856L57.2915 13.6305Z" fill="#006EB7"/>
<path d="M80.6404 17.2062V12.4214L73.7541 3.74392V2.50244H77.9311L82.5091 8.5288H83.201L87.8177 2.50244H91.7879V3.74392L84.9274 12.4149V17.1998H80.6404V17.2062Z" fill="#006EB7"/>
<path d="M105.354 2.50244L112.854 15.9648V17.2062H108.677L107.313 14.6004H97.7172L96.3335 17.2062H92.2599V15.9648L99.754 2.50244H105.354ZM99.6053 11.0312H105.444L102.819 6.0523H102.231L99.6053 11.0312Z" fill="#006EB7"/>
<path d="M117.743 17.2062V2.50244H122.023V13.4624H131.852V17.1998H117.743V17.2062Z" fill="#006EB7"/>
<path d="M155.925 17.2062L151.935 13.9086V5.80013L155.925 2.50244H167.893V6.0717H157.858L156.222 7.41664V12.2856L157.858 13.6305H167.893V17.1998H155.925V17.2062Z" fill="#006EB7"/>
<path d="M173.396 17.2062V2.50244H177.677V13.4624H187.505V17.1998H173.396V17.2062Z" fill="#006EB7"/>
<path d="M192.29 17.2062V2.50244H208.397V6.01351H196.577V8.21843H205.461V11.3674H196.577V13.6952H208.63V17.1998H192.29V17.2062Z" fill="#006EB7"/>
<path d="M225.596 2.50244L233.091 15.9648V17.2062H228.914L227.549 14.6004H217.954L216.57 17.2062H212.496V15.9648L219.99 2.50244H225.596ZM219.842 11.0312H225.68L223.055 6.0523H222.467L219.842 11.0312Z" fill="#006EB7"/>
<path d="M237.985 17.2062V2.50244H244.219L250.917 12.7899H251.422V2.50244H255.515V17.1998H249.282L242.583 6.91229H242.078V17.1998H237.985V17.2062Z" fill="#006EB7"/>
</g>
<defs>
<clipPath id="clip0_90_3490">
<rect width="258.202" height="26" fill="white" transform="translate(0.797607)"/>
</clipPath>
</defs>
</svg>
