<svg width="24" height="24" viewBox="0 0 24 24" fill="none" xmlns="http://www.w3.org/2000/svg">
<g id="ph:phone-call">
<path id="Vector" d="M14.2219 3.55301C14.2468 3.45767 14.2905 3.36827 14.3505 3.29004C14.4104 3.21182 14.4854 3.14634 14.5709 3.09744C14.6565 3.04855 14.751 3.01722 14.8488 3.0053C14.9466 2.99338 15.0458 3.0011 15.1406 3.02801C16.5387 3.40298 17.8136 4.13921 18.8371 5.16276C19.8607 6.18631 20.5969 7.46115 20.9719 8.85926C20.9988 8.95406 21.0065 9.05328 20.9946 9.15111C20.9827 9.24893 20.9513 9.34339 20.9024 9.42896C20.8535 9.51452 20.7881 9.58947 20.7098 9.64941C20.6316 9.70934 20.5422 9.75306 20.4469 9.77801C20.3829 9.79654 20.3166 9.80601 20.25 9.80614C20.0845 9.80518 19.9239 9.74949 19.7933 9.64775C19.6627 9.546 19.5695 9.40391 19.5281 9.24364C19.2162 8.10203 18.6121 7.06147 17.7752 6.22464C16.9384 5.38782 15.8979 4.78365 14.7562 4.47176C14.6601 4.44784 14.5697 4.40486 14.4904 4.34537C14.4111 4.28587 14.3446 4.21107 14.2948 4.12539C14.2449 4.03972 14.2128 3.94491 14.2003 3.84659C14.1878 3.74827 14.1951 3.64844 14.2219 3.55301ZM13.9781 7.36864C14.6127 7.54234 15.1911 7.87835 15.6563 8.34358C16.1215 8.8088 16.4575 9.38718 16.6312 10.0218C16.6712 10.1828 16.764 10.3258 16.8949 10.4278C17.0258 10.5298 17.1872 10.5849 17.3531 10.5843C17.4167 10.5849 17.48 10.5754 17.5406 10.5561C17.6368 10.5322 17.7272 10.4892 17.8065 10.4297C17.8857 10.3702 17.9523 10.2954 18.0021 10.2098C18.0519 10.1241 18.0841 10.0293 18.0966 9.93097C18.1091 9.83265 18.1018 9.73282 18.075 9.63739C17.8382 8.7463 17.3702 7.93362 16.7182 7.28167C16.0663 6.62971 15.2536 6.16165 14.3625 5.92489C14.2647 5.88924 14.1605 5.87436 14.0566 5.88119C13.9527 5.88802 13.8514 5.91641 13.759 5.96455C13.6667 6.01268 13.5854 6.07952 13.5203 6.16079C13.4553 6.24207 13.4078 6.33601 13.381 6.43662C13.3542 6.53724 13.3487 6.64233 13.3647 6.74521C13.3808 6.84809 13.4181 6.94649 13.4743 7.03417C13.5304 7.12184 13.6042 7.19685 13.691 7.25444C13.7777 7.31202 13.8755 7.35091 13.9781 7.36864ZM21.7125 16.4155C21.5467 17.6815 20.9267 18.8442 19.9679 19.6875C19.0092 20.5307 17.7768 20.9971 16.5 20.9999C9.05625 20.9999 3 14.9436 3 7.49989C3.00281 6.22306 3.46919 4.99071 4.31243 4.03194C5.15566 3.07317 6.31837 2.45323 7.58437 2.28739C7.90711 2.2516 8.23284 2.31955 8.51435 2.48138C8.79586 2.6432 9.01851 2.89049 9.15 3.18739L11.0344 7.58426C11.1321 7.81249 11.1713 8.06151 11.1484 8.30873C11.1255 8.55594 11.0412 8.79352 10.9031 8.99989L9.34687 11.3811C10.0516 12.8113 11.2127 13.9658 12.6469 14.6624L15 13.0968C15.2061 12.9578 15.4443 12.8737 15.692 12.8524C15.9397 12.831 16.1888 12.8732 16.4156 12.9749L20.8125 14.8499C21.1094 14.9814 21.3567 15.204 21.5185 15.4855C21.6803 15.767 21.7483 16.0928 21.7125 16.4155ZM20.2219 16.228L15.825 14.353L13.4812 15.9186C13.2656 16.0612 13.0168 16.1456 12.7589 16.1637C12.501 16.1818 12.2428 16.1329 12.0094 16.0218C10.2628 15.1769 8.84994 13.7707 7.99687 12.028C7.8844 11.7954 7.83393 11.5376 7.85036 11.2798C7.86678 11.0219 7.94955 10.7726 8.09062 10.5561L9.65625 8.17489L7.77187 3.77801C6.86714 3.89431 6.03582 4.3364 5.43356 5.02149C4.8313 5.70658 4.4994 6.58771 4.5 7.49989C4.50248 10.6817 5.76756 13.7325 8.01746 15.9824C10.2674 18.2323 13.3182 19.4974 16.5 19.4999C17.4122 19.5005 18.2933 19.1686 18.9784 18.5663C19.6635 17.9641 20.1056 17.1327 20.2219 16.228Z" fill="#006EB7"/>
</g>
</svg>
